<svg width="136" height="136" fill="none" xmlns="http://www.w3.org/2000/svg"><g clip-path="url(#clip0_27027_253)"><path d="M60.6 86.17a4.28 4.28 0 00-2.07-1.3 4.176 4.176 0 00-2.421.06l-7.687 2.524a3.076 3.076 0 01-2.55-.282 3.201 3.201 0 01-.973-.904 3.315 3.315 0 01-.536-1.233l-1.725-8.125a4.493 4.493 0 00-1.165-2.191 4.282 4.282 0 00-2.126-1.199l-.363-.082-27.65 41.765 22.522-1.55L40.125 136l28.25-42.614a3.039 3.039 0 01-1.282-.275 3.125 3.125 0 01-1.059-.792L60.6 86.17z" fill="#A78BFA"/><path d="M60.6 86.17a4.324 4.324 0 00-1.444-1.077 4.139 4.139 0 00-3.047-.174l-7.687 2.524a3.079 3.079 0 01-2.55-.283 3.204 3.204 0 01-.975-.903 3.318 3.318 0 01-.537-1.233l-.851-4.03-22.787 33.563 13.131-.904 3.656 13.028L63.1 88.999l-2.5-2.829zm14.795 0a4.28 4.28 0 012.069-1.3 4.17 4.17 0 012.421.06l7.688 2.524a3.074 3.074 0 002.549-.282 3.2 3.2 0 00.974-.904c.26-.368.442-.788.536-1.233l1.724-8.125a4.49 4.49 0 011.165-2.19 4.279 4.279 0 012.126-1.197l.363-.082 27.657 41.762-22.523-1.55L95.875 136 67.62 93.386a3.02 3.02 0 001.281-.275 3.126 3.126 0 001.06-.793l5.434-6.148z" fill="#A78BFA"/><path d="M75.395 86.17a4.28 4.28 0 012.069-1.3 4.17 4.17 0 012.421.06l7.688 2.524a3.076 3.076 0 002.549-.282 3.2 3.2 0 00.974-.904c.26-.368.442-.788.536-1.233l.85-4.03 22.784 33.552-13.133-.904-3.654 13.028-25.583-37.682 2.5-2.829z" fill="#A78BFA"/><path d="M79.167 89.771l7.376 2.422a7.761 7.761 0 003.285.342 7.825 7.825 0 003.138-1.057 8.08 8.08 0 002.457-2.275 8.365 8.365 0 001.354-3.105l1.65-7.792 1.567-.351-2.987-4.514-.363.082a4.279 4.279 0 00-2.123 1.2 4.49 4.49 0 00-1.162 2.187l-1.725 8.126a3.313 3.313 0 01-.536 1.233c-.26.368-.592.675-.974.903a3.074 3.074 0 01-2.549.283l-7.687-2.524a4.177 4.177 0 00-2.422-.06 4.28 4.28 0 00-2.068 1.3l-5.435 6.142a2.502 2.502 0 01-.872.729 2.43 2.43 0 01-2.186 0 2.508 2.508 0 01-.871-.729l-5.432-6.142a4.324 4.324 0 00-1.443-1.078 4.136 4.136 0 00-3.047-.174l-7.688 2.524a3.077 3.077 0 01-2.55-.282 3.205 3.205 0 01-.975-.904 3.318 3.318 0 01-.537-1.233L42.641 76.9a4.492 4.492 0 00-1.17-2.183 4.28 4.28 0 00-2.124-1.193l-.36-.082-2.973 4.499 1.657.371 1.65 7.792a8.378 8.378 0 001.357 3.105 8.08 8.08 0 002.457 2.273 7.826 7.826 0 003.14 1.056 7.762 7.762 0 003.284-.344l7.355-2.442 5.228 5.917a7.942 7.942 0 003.274 2.188l2.58-3.899 2.605 3.925a7.936 7.936 0 003.356-2.214l5.21-5.897z" fill="#7C3AED"/><path d="M60.6 86.17a4.326 4.326 0 00-1.443-1.077 4.136 4.136 0 00-3.047-.174l-7.688 2.524a3.077 3.077 0 01-2.55-.283 3.204 3.204 0 01-.975-.903 3.316 3.316 0 01-.537-1.233l-.85-4.03-22.787 33.563 13.13-.904 3.657 13.028 25.589-37.682-2.5-2.829zm31.889-5.165l-.851 4.03a3.313 3.313 0 01-.536 1.233c-.26.368-.592.676-.974.904a3.076 3.076 0 01-2.55.283l-7.687-2.525a4.175 4.175 0 00-2.421-.06 4.28 4.28 0 00-2.069 1.3L72.902 89l25.589 37.682 3.654-13.028 13.133.904-22.79-33.552z" fill="#8B5CF6"/><path d="M63.099 88.999l-2.5-2.829a4.325 4.325 0 00-1.442-1.077 4.136 4.136 0 00-3.047-.174l-7.688 2.524a3.077 3.077 0 01-2.55-.283 3.206 3.206 0 01-.975-.903 3.32 3.32 0 01-.537-1.233l-.85-4.03-3.972 5.85c.643 2.078 2.059 3.808 3.938 4.811a7.77 7.77 0 006.084.538l7.355-2.442 3.208 3.632 2.979-4.387-.003.003zm23.441 3.194a7.772 7.772 0 006.037-.501c1.87-.977 3.294-2.674 3.962-4.723l-4.05-5.964-.851 4.03a3.314 3.314 0 01-.536 1.233c-.26.368-.592.676-.974.904a3.076 3.076 0 01-2.549.283L79.89 84.93a4.176 4.176 0 00-2.421-.06 4.28 4.28 0 00-2.069 1.3L72.902 89l3.015 4.443 3.251-3.677 7.372 2.428z" fill="#A78BFA"/><path d="M97.194 19.87l7.883 1.776a3.69 3.69 0 011.407.655c.42.317.771.72 1.031 1.185a3.965 3.965 0 01.325 3.097l-2.448 7.927a3.97 3.97 0 00-.049 2.167 3.874 3.874 0 001.093 1.852l5.957 5.601c.384.361.692.802.902 1.292a3.963 3.963 0 010 3.117c-.21.49-.518.93-.902 1.292l-5.957 5.604a3.882 3.882 0 00-1.094 1.852 3.97 3.97 0 00.05 2.167l2.448 7.927a3.962 3.962 0 01-.325 3.096c-.26.464-.611.867-1.031 1.184a3.67 3.67 0 01-1.407.654l-7.883 1.778a3.707 3.707 0 00-1.845 1.04 3.891 3.891 0 00-1.008 1.903l-1.725 8.125a3.912 3.912 0 01-.633 1.453 3.78 3.78 0 01-1.148 1.064 3.628 3.628 0 01-3.004.335l-7.688-2.524a3.621 3.621 0 00-2.102-.052 3.711 3.711 0 00-1.795 1.128l-5.435 6.143c-.35.396-.777.713-1.252.93a3.64 3.64 0 01-3.021 0 3.742 3.742 0 01-1.253-.93l-5.435-6.143a3.711 3.711 0 00-1.795-1.128 3.621 3.621 0 00-2.102.052l-7.687 2.524a3.628 3.628 0 01-3.004-.335 3.778 3.778 0 01-1.149-1.064 3.909 3.909 0 01-.633-1.453l-1.724-8.125a3.891 3.891 0 00-1.009-1.903 3.707 3.707 0 00-1.845-1.04l-7.883-1.778a3.686 3.686 0 01-1.407-.654 3.82 3.82 0 01-1.03-1.184 3.969 3.969 0 01-.325-3.096l2.447-7.927a3.966 3.966 0 00.05-2.167 3.875 3.875 0 00-1.093-1.852l-5.957-5.604a3.853 3.853 0 01-.903-1.292 3.958 3.958 0 010-3.117c.21-.49.518-.93.903-1.292l5.957-5.601a3.877 3.877 0 001.092-1.852 3.97 3.97 0 00-.049-2.167l-2.448-7.926a3.974 3.974 0 01.325-3.098 3.82 3.82 0 011.031-1.185c.42-.317.9-.54 1.407-.655l7.883-1.775a3.708 3.708 0 001.845-1.04 3.891 3.891 0 001.009-1.903L43.48 8.8a3.91 3.91 0 01.634-1.452 3.777 3.777 0 011.149-1.063 3.629 3.629 0 013.003-.334l7.687 2.524c.681.224 1.41.24 2.101.05A3.723 3.723 0 0059.85 7.4l5.435-6.143a3.74 3.74 0 011.253-.928 3.645 3.645 0 013.02 0 3.74 3.74 0 011.253.928L76.246 7.4a3.723 3.723 0 001.796 1.126c.69.19 1.42.174 2.101-.05l7.688-2.524a3.63 3.63 0 013.003.334c.45.268.842.63 1.148 1.063.307.433.523.928.634 1.452l1.725 8.128c.152.72.503 1.381 1.008 1.903a3.708 3.708 0 001.845 1.04z" fill="#6D28D9"/><path d="M97.578 46.994a31.157 31.157 0 01-4.409 15.971c-2.876 4.8-6.99 8.681-11.88 11.211a28.764 28.764 0 01-15.819 3.116c-5.45-.493-10.661-2.537-15.05-5.906-4.39-3.368-7.786-7.928-9.809-13.17a31.334 31.334 0 01-1.647-16.52c.946-5.557 3.37-10.734 7.004-14.953 3.633-4.219 8.331-7.314 13.57-8.94a28.319 28.319 0 018.51-1.287c3.88 0 7.723.789 11.307 2.321a29.49 29.49 0 019.583 6.608 30.531 30.531 0 016.4 9.888 31.277 31.277 0 012.24 11.66z" fill="#A78BFA"/><path d="M97.577 46.994a31.165 31.165 0 01-3.688 14.744c-2.421 4.513-5.915 8.316-10.154 11.054a28.319 28.319 0 01-8.51 1.287c-6.414.004-12.655-2.145-17.78-6.122-5.124-3.977-8.854-9.566-10.626-15.922a31.353 31.353 0 01.806-19.31c2.295-6.176 6.476-11.414 11.913-14.922a28.318 28.318 0 018.51-1.287c3.88 0 7.722.789 11.306 2.321a29.488 29.488 0 019.583 6.608 30.534 30.534 0 016.4 9.888 31.278 31.278 0 012.24 11.66z" fill="#8B5CF6"/><path d="M70.198 65.78a2.095 2.095 0 01-1.504-.642 2.23 2.23 0 01-.623-1.551V36.385l-5.486 3.864c-.23.169-.492.289-.768.352a2.064 2.064 0 01-1.621-.299 2.16 2.16 0 01-.602-.605 2.259 2.259 0 01-.005-2.464c.159-.242.362-.449.599-.608l8.81-6.207a2.074 2.074 0 012.194-.128c.343.187.63.466.829.808.2.342.305.734.305 1.134v31.355c0 .582-.224 1.14-.623 1.551-.4.412-.94.643-1.505.643z" fill="#F5F3FF"/></g><defs><clipPath id="clip0_27027_253"><path fill="#fff" d="M0 0h136v136H0z"/></clipPath></defs></svg>