<svg width="305" height="74" fill="none" xmlns="http://www.w3.org/2000/svg"><mask id="a" style="mask-type:luminance" maskUnits="userSpaceOnUse" x="0" y="0" width="50" height="74"><path d="M50 0H0v74h50V0z" fill="#fff"/></mask><g mask="url(#a)"><path d="M25.908 0c-2.799 0-5.483 1.1-7.463 3.057a10.38 10.38 0 00-3.092 7.378v4.741h-4.795a10.658 10.658 0 00-4.043.793 10.56 10.56 0 00-3.427 2.263 10.43 10.43 0 00-2.29 3.388 10.33 10.33 0 00-.8 3.997v10.432H15.35v9.481h-4.796a10.62 10.62 0 00-7.465 3.056 10.379 10.379 0 00-3.095 7.38v18.028H10.56c1.386 0 2.758-.27 4.038-.796a10.559 10.559 0 003.423-2.263c.98-.97 1.756-2.12 2.285-3.386.53-1.267.802-2.623.801-3.993h.014v-6.888l-.029.004V12.79l.024.005v-2.359a4.735 4.735 0 011.406-3.354 4.845 4.845 0 013.389-1.4h18.337v4.754a4.728 4.728 0 01-1.41 3.35 4.838 4.838 0 01-3.39 1.39H23.285v5.69h16.159a10.611 10.611 0 007.463-3.055A10.375 10.375 0 0050 10.434V0H25.908zM15.353 30.358H5.759v-4.74a4.738 4.738 0 011.408-3.358 4.847 4.847 0 013.393-1.4h4.795l-.002 9.498zm0 33.203a4.726 4.726 0 01-1.406 3.351 4.835 4.835 0 01-3.39 1.394h-4.8V55.97a4.718 4.718 0 011.407-3.353 4.821 4.821 0 013.394-1.388h4.795V63.56zm7.933-27.513h12.11v4.746a4.731 4.731 0 01-1.411 3.349 4.84 4.84 0 01-3.39 1.391h-7.31v5.694h7.313c1.386 0 2.759-.269 4.04-.793a10.56 10.56 0 003.425-2.262c.98-.97 1.758-2.12 2.288-3.386a10.33 10.33 0 00.802-3.995h.005V30.357H23.286v5.691z" fill="#A78BFA"/></g><path d="M60.312 35.728h6.696v3.84h-6.696V46h-4.464V28.864h13.104V32.8h-8.64v2.928zm19.982-2.208v3.864h-1.32c-1.312 0-2.264.304-2.856.912-.576.608-.864 1.504-.864 2.688V46h-4.176V33.52h4.032v1.344h.672c.512-.896 1.576-1.344 3.192-1.344h1.32zm8.221-.312c2.016 0 3.624.592 4.824 1.776 1.216 1.184 1.824 2.776 1.824 4.776s-.608 3.592-1.824 4.776c-1.2 1.184-2.808 1.776-4.824 1.776-2 0-3.616-.592-4.848-1.776-1.216-1.184-1.824-2.776-1.824-4.776s.608-3.592 1.824-4.776c1.232-1.184 2.848-1.776 4.848-1.776zm0 9.696c.816 0 1.432-.288 1.848-.864.416-.592.624-1.352.624-2.28 0-.928-.208-1.68-.624-2.256-.416-.592-1.032-.888-1.848-.888-.832 0-1.456.296-1.872.888-.416.576-.624 1.328-.624 2.256 0 .928.208 1.688.624 2.28.416.576 1.04.864 1.872.864zm24.162-9.696c1.504 0 2.632.448 3.384 1.344.752.88 1.128 2.12 1.128 3.72V46h-4.176v-6.864c0-.752-.12-1.32-.36-1.704-.24-.384-.648-.576-1.224-.576-.624 0-1.088.216-1.392.648-.304.432-.456 1-.456 1.704V46h-4.176v-6.864c0-.752-.12-1.32-.36-1.704-.24-.384-.648-.576-1.224-.576-.64 0-1.112.24-1.416.72-.288.464-.432 1.072-.432 1.824V46h-4.176V33.52h4.032v1.08h.672c.592-.928 1.608-1.392 3.048-1.392 1.424 0 2.472.464 3.144 1.392h.672c.64-.928 1.744-1.392 3.312-1.392zm20.362 3.624v.672c.576.288 1.072.744 1.488 1.368.432.608.648 1.304.648 2.088 0 1.52-.496 2.744-1.488 3.672-.992.912-2.48 1.368-4.464 1.368h-8.664V28.864h8.4c1.872 0 3.296.44 4.272 1.32.992.88 1.488 2 1.488 3.36 0 .736-.16 1.4-.48 1.992-.304.576-.704 1.008-1.2 1.296zm-8.016-4.368v2.952h3.336c1.184 0 1.776-.488 1.776-1.464 0-.992-.608-1.488-1.824-1.488h-3.288zm0 9.864h3.48c.592 0 1.088-.128 1.488-.384.4-.256.6-.664.6-1.224 0-1.136-.672-1.704-2.016-1.704h-3.552v3.312zm19.063-9.12c2.016 0 3.624.592 4.824 1.776 1.216 1.184 1.824 2.776 1.824 4.776s-.608 3.592-1.824 4.776c-1.2 1.184-2.808 1.776-4.824 1.776-2 0-3.616-.592-4.848-1.776-1.216-1.184-1.824-2.776-1.824-4.776s.608-3.592 1.824-4.776c1.232-1.184 2.848-1.776 4.848-1.776zm0 9.696c.816 0 1.432-.288 1.848-.864.416-.592.624-1.352.624-2.28 0-.928-.208-1.68-.624-2.256-.416-.592-1.032-.888-1.848-.888-.832 0-1.456.296-1.872.888-.416.576-.624 1.328-.624 2.256 0 .928.208 1.688.624 2.28.416.576 1.04.864 1.872.864zm14.657-9.696c3.968 0 5.952 1.64 5.952 4.92V46h-3.816v-.96h-.672c-.752.848-1.848 1.272-3.288 1.272-1.328 0-2.392-.408-3.192-1.224-.784-.832-1.176-1.824-1.176-2.976 0-1.104.44-2.072 1.32-2.904.88-.832 2.192-1.248 3.936-1.248h2.88v-.216c0-1.056-.568-1.584-1.704-1.584-1.008 0-1.56.36-1.656 1.08h-4.128c.032-1.2.56-2.168 1.584-2.904 1.04-.752 2.36-1.128 3.96-1.128zm1.944 7.872v-.744h-2.016c-.592 0-1.064.128-1.416.384-.352.24-.528.592-.528 1.056 0 .976.592 1.464 1.776 1.464.672 0 1.2-.2 1.584-.6.4-.416.6-.936.6-1.56zm16.38-7.56v3.864h-1.32c-1.312 0-2.264.304-2.856.912-.576.608-.864 1.504-.864 2.688V46h-4.176V33.52h4.032v1.344h.672c.512-.896 1.576-1.344 3.192-1.344h1.32zm6.734-.312c1.376 0 2.416.456 3.12 1.368h.672v-6.024h4.176V46h-4.032v-1.056h-.672c-.736.912-1.824 1.368-3.264 1.368-1.6 0-2.864-.6-3.792-1.8-.928-1.216-1.392-2.8-1.392-4.752 0-1.936.472-3.512 1.416-4.728.944-1.216 2.2-1.824 3.768-1.824zm-.408 8.808c.4.592 1.016.888 1.848.888.832 0 1.456-.296 1.872-.888.432-.592.648-1.344.648-2.256 0-.912-.216-1.664-.648-2.256-.416-.592-1.04-.888-1.872-.888-.832 0-1.448.296-1.848.888-.4.592-.6 1.344-.6 2.256 0 .912.2 1.664.6 2.256zm18.564-13.152h7.632c2.576 0 4.544.768 5.904 2.304 1.36 1.536 2.04 3.624 2.04 6.264s-.68 4.728-2.04 6.264c-1.36 1.536-3.328 2.304-5.904 2.304h-7.632V28.864zm4.464 13.2h2.448c1.424 0 2.464-.424 3.12-1.272.656-.848.984-1.968.984-3.36 0-1.408-.328-2.528-.984-3.36-.656-.848-1.696-1.272-3.12-1.272h-2.448v9.264zm21.659-.096h4.224c-.288 1.392-.944 2.464-1.968 3.216-1.024.752-2.408 1.128-4.152 1.128-2 0-3.592-.584-4.776-1.752-1.184-1.168-1.776-2.768-1.776-4.8s.584-3.632 1.752-4.8c1.168-1.168 2.736-1.752 4.704-1.752 1.968 0 3.512.552 4.632 1.656 1.12 1.104 1.68 2.6 1.68 4.488v.96h-8.64c.176 1.728 1.008 2.592 2.496 2.592.96 0 1.568-.312 1.824-.936zm-1.992-5.784c-1.12 0-1.84.544-2.16 1.632h4.2c-.224-1.088-.904-1.632-2.04-1.632zm8.959-7.632h4.176V46h-4.176V28.552zm7.476 0h4.176v3.48h-4.176v-3.48zm0 4.968h4.176V46h-4.176V33.52zM252.016 46L248.8 33.52h4.2l2.088 8.928h1.056l1.968-8.928h4.2L259.024 46h-7.008zm20.174-4.032h4.224c-.288 1.392-.944 2.464-1.968 3.216-1.024.752-2.408 1.128-4.152 1.128-2 0-3.592-.584-4.776-1.752-1.184-1.168-1.776-2.768-1.776-4.8s.584-3.632 1.752-4.8c1.168-1.168 2.736-1.752 4.704-1.752 1.968 0 3.512.552 4.632 1.656 1.12 1.104 1.68 2.6 1.68 4.488v.96h-8.64c.176 1.728 1.008 2.592 2.496 2.592.96 0 1.568-.312 1.824-.936zm-1.992-5.784c-1.12 0-1.84.544-2.16 1.632h4.2c-.224-1.088-.904-1.632-2.04-1.632zm18.174-2.664v3.864h-1.32c-1.312 0-2.264.304-2.856.912-.576.608-.864 1.504-.864 2.688V46h-4.176V33.52h4.032v1.344h.672c.512-.896 1.576-1.344 3.192-1.344h1.32zm11.805 0h4.128l-7.56 17.28h-4.128l2.616-6.168-5.232-11.112h4.176l2.808 6.048h.672l2.52-6.048z" fill="#111827"/></svg>