<svg width="136" height="136" fill="none" xmlns="http://www.w3.org/2000/svg"><path d="M67.733 18.801v.36H39.218v-.36l1.896-7.468h24.723l1.896 7.468z" fill="#EDE9FE"/><path d="M11.333 18.801H95.62v105.866H11.333V18.801z" fill="#4C1D95"/><path d="M18.95 26.2h69.044v91.082H18.949V26.201z" fill="#C4B5FD"/><path d="M87.994 26.2v85.5h-48.2a12.23 12.23 0 01-4.552-.877 11.927 11.927 0 01-3.858-2.5 11.494 11.494 0 01-2.577-3.74 11.208 11.208 0 01-.903-4.411V26.201h60.09z" fill="#A78BFA"/><path d="M28.367 35.136c-.559 0-1.095.215-1.49.597a2.011 2.011 0 00-.618 1.443v10.446c0 .541.223 1.06.618 1.443.395.382.931.597 1.49.597h10.78a2.14 2.14 0 001.489-.597c.395-.383.616-.902.616-1.443V37.356c0-.292-.059-.58-.174-.85a2.217 2.217 0 00-.498-.72 2.298 2.298 0 00-.744-.482 2.352 2.352 0 00-.877-.168H28.367zm0 29.038c-.56 0-1.096.215-1.49.598a2.01 2.01 0 00-.618 1.444v10.446c0 .541.223 1.06.618 1.443.395.382.931.597 1.49.597h10.78a2.14 2.14 0 001.489-.597c.395-.383.616-.902.616-1.443V66.396c0-.59-.241-1.154-.672-1.571a2.332 2.332 0 00-1.621-.651H28.367zm0 28.618c-.277 0-.551.052-.807.155a2.11 2.11 0 00-.684.442 2.04 2.04 0 00-.457.662c-.106.248-.16.513-.16.781v10.458c0 .542.223 1.061.618 1.443a2.14 2.14 0 001.49.597h10.78c.559 0 1.094-.215 1.489-.597a2.01 2.01 0 00.616-1.443V95.012c0-.291-.059-.58-.174-.85a2.217 2.217 0 00-.498-.72 2.298 2.298 0 00-.744-.482 2.354 2.354 0 00-.877-.168H28.367z" fill="#6D28D9"/><path d="M79.17 44.16H64.297c-.5 0-.98-.192-1.334-.535a1.8 1.8 0 01-.552-1.292c0-.485.198-.95.552-1.293a1.918 1.918 0 011.334-.535H79.17c.5 0 .98.192 1.334.535a1.8 1.8 0 01.552 1.293 1.8 1.8 0 01-.552 1.292 1.918 1.918 0 01-1.334.536zm-22.489 0h-7.646c-.5 0-.98-.192-1.334-.535a1.8 1.8 0 01-.553-1.292c0-.485.199-.95.553-1.293a1.918 1.918 0 011.334-.535h7.646c.5 0 .98.192 1.334.535a1.8 1.8 0 01.552 1.293 1.8 1.8 0 01-.552 1.292 1.918 1.918 0 01-1.334.536zm22.49 28.305H71.8c-.501 0-.98-.193-1.335-.535a1.8 1.8 0 01-.552-1.293c0-.485.199-.95.552-1.293a1.917 1.917 0 011.334-.535h7.37c.5 0 .98.193 1.334.535a1.8 1.8 0 01.552 1.293 1.8 1.8 0 01-.552 1.293 1.918 1.918 0 01-1.334.535zm-15.05 0H49.03c-.5 0-.98-.193-1.334-.535a1.8 1.8 0 01-.553-1.293c0-.485.199-.95.553-1.293a1.918 1.918 0 011.334-.535h15.09c.5 0 .98.193 1.334.535a1.8 1.8 0 01.553 1.293 1.8 1.8 0 01-.553 1.293 1.918 1.918 0 01-1.334.535zM35.05 45.599h-.073a1.942 1.942 0 01-.722-.17 1.89 1.89 0 01-.599-.425l-2.337-2.486a1.817 1.817 0 01-.38-.61 1.776 1.776 0 01.066-1.396c.105-.217.254-.412.436-.574a1.942 1.942 0 012.07-.304c.225.102.426.245.593.422l1.051 1.114 9.87-8.967a1.92 1.92 0 011.35-.493c.5.016.972.223 1.314.576.342.354.525.824.509 1.308a1.8 1.8 0 01-.595 1.273L36.34 45.105c-.35.319-.81.495-1.29.495zm0 29.038h-.073a1.944 1.944 0 01-.722-.17 1.892 1.892 0 01-.599-.425l-2.337-2.486a1.818 1.818 0 01-.38-.61 1.776 1.776 0 01.066-1.396c.105-.218.254-.412.436-.574a1.942 1.942 0 012.07-.304c.225.101.426.245.593.422l1.051 1.114 9.87-8.967a1.92 1.92 0 011.35-.493c.5.016.972.223 1.314.576.342.353.525.824.509 1.308a1.8 1.8 0 01-.595 1.273L36.34 74.142a1.91 1.91 0 01-1.29.495zm0 28.616h-.073a1.949 1.949 0 01-.722-.17 1.885 1.885 0 01-.599-.425l-2.344-2.486a1.826 1.826 0 01-.407-.612 1.777 1.777 0 01.042-1.426c.106-.223.256-.423.443-.588a1.942 1.942 0 012.114-.286c.227.11.428.262.592.448l1.052 1.114 9.87-8.97a1.924 1.924 0 011.335-.45c.49.023.95.23 1.284.576.335.346.517.804.51 1.278a1.8 1.8 0 01-.551 1.263l-11.264 10.236a1.91 1.91 0 01-1.282.498zm44.613-1.426h-14.87c-.5 0-.98-.193-1.334-.536a1.797 1.797 0 01-.553-1.292c0-.485.199-.95.553-1.293a1.917 1.917 0 011.334-.535h14.87c.5 0 .98.192 1.334.535a1.8 1.8 0 01.552 1.293c0 .485-.198.95-.552 1.292a1.917 1.917 0 01-1.334.536zm-22.497 0h-7.638c-.5 0-.98-.193-1.334-.536a1.797 1.797 0 01-.553-1.292c0-.485.199-.95.553-1.293a1.917 1.917 0 011.334-.535h7.638c.5 0 .98.192 1.334.535a1.8 1.8 0 01.553 1.293c0 .485-.199.95-.553 1.292a1.917 1.917 0 01-1.334.536z" fill="#EDE9FE"/><path d="M124.667 61.59a1.8 1.8 0 01-.553 1.293 1.915 1.915 0 01-1.334.535c-.5 0-.98-.193-1.334-.535a1.803 1.803 0 01-.552-1.293V44.87c-.126-.414-.629-1.389-2.842-1.389h-1.897v-3.339a1.349 1.349 0 00-.025-.317h1.924a6.137 6.137 0 014.239 1.074 5.79 5.79 0 012.351 3.581l.023 17.11zm-8.376 44.31l-5.71 18.767-5.735-18.767h11.445z" fill="#6D28D9"/><path d="M104.846 61.59h11.445v44.31h-11.445V61.59z" fill="#C4B5FD"/><path d="M116.293 40.142V61.59h-11.444V40.142c0-1.47.602-2.881 1.676-3.921a5.815 5.815 0 014.046-1.624c1.517 0 2.973.584 4.046 1.624a5.46 5.46 0 011.676 3.92z" fill="#6D28D9"/><path d="M116.291 105.9l-5.71 18.767V105.9h5.71z" fill="#7C3AED"/><path d="M110.581 61.59h5.71v44.31h-5.71V61.59z" fill="#A78BFA"/><path d="M116.293 40.142V61.59h-5.709V34.61a5.79 5.79 0 013.915 1.51 5.442 5.442 0 011.769 3.705c.021.105.03.21.025.317z" fill="#7C3AED"/></svg>