<svg width="136" height="136" fill="none" xmlns="http://www.w3.org/2000/svg"><path fill-rule="evenodd" clip-rule="evenodd" d="M37.765 115.843c-18.36-6.342-22.453-21.166-22.926-39.06-.11-4.168-.018-8.31.091-12.476 8.105-1.412 15.866-4.013 22.982-8.237 4.29 2.545 8.636 4.417 13.372 5.913.33.105.396.51 1.088.51.335 0 .265-.093.497-.027 2.79.795 5.147 1.34 8.027 1.841.263 9.949.483 21.239-2.453 30.747-3.314 10.731-9.995 17.201-20.384 20.789h-.294zm15.006-40.027a1.245 1.245 0 00-.89-.376c-.333 0-.653.136-.889.376L34.844 92.31l-7.628-7.79a1.257 1.257 0 00-.89-.377 1.233 1.233 0 00-.889.376 1.287 1.287 0 00-.37.91 1.31 1.31 0 00.37.91l8.517 8.701a1.257 1.257 0 00.891.378 1.237 1.237 0 00.891-.378l17.036-17.404a1.285 1.285 0 00.369-.91 1.31 1.31 0 00-.37-.909zm8.477-28.375V34.893a.833.833 0 01.236-.578.798.798 0 01.566-.241h29.88V47.44H61.248zm33.2-26.581a.833.833 0 01.236-.579.798.798 0 01.566-.241h14.195a.796.796 0 01.566.241.829.829 0 01.236.579v26.58h-15.8V20.86zM34.016 40.626c0 .67-.552 1.207-1.078 1.524-.69.417-1.535.61-2.332.61H17.719c-.797 0-1.641-.193-2.33-.61-.526-.317-1.078-.853-1.078-1.524v-1.779c0-.67.552-1.206 1.077-1.523.69-.416 1.534-.609 2.331-.609l11.67.007c.218.04.276.106.527.103l3.105-.025c.343.092.91.387.995.672v3.154z" fill="#C4B5FD"/><path fill-rule="evenodd" clip-rule="evenodd" d="M53.095 75.486a1.786 1.786 0 010 2.48L36.06 95.37a1.687 1.687 0 01-2.43 0l-8.517-8.7a1.757 1.757 0 01-.503-1.241 1.785 1.785 0 01.503-1.241 1.688 1.688 0 012.427 0l7.304 7.46L50.67 75.486a1.69 1.69 0 012.426 0zm44.33-1.014V60.438c0-.97.77-1.755 1.718-1.755.947 0 1.716.785 1.716 1.755v14.034c0 .968-.769 1.753-1.716 1.753-.948 0-1.718-.785-1.718-1.753zm-13.738 0V60.438c0-.465.181-.911.503-1.24a1.698 1.698 0 011.214-.514 1.7 1.7 0 011.214.514c.322.329.503.775.503 1.24v14.034c0 .465-.18.91-.503 1.24a1.698 1.698 0 01-1.87.38 1.716 1.716 0 01-.557-.38 1.758 1.758 0 01-.504-1.24zm-13.737 0V60.438a1.786 1.786 0 01.502-1.24 1.714 1.714 0 011.214-.515 1.7 1.7 0 011.214.514c.322.33.503.776.503 1.241v14.034c0 .465-.181.91-.503 1.24a1.7 1.7 0 01-1.214.513c-.456 0-.892-.185-1.214-.514a1.773 1.773 0 01-.502-1.24zm35.098 28.709c0 2.677-2.135 4.857-4.76 4.857-2.623 0-4.757-2.18-4.757-4.857 0-2.682 2.134-4.862 4.757-4.862 2.625 0 4.76 2.18 4.76 4.862zm-30.27 0c0 2.677-2.134 4.857-4.758 4.857-2.621 0-4.757-2.18-4.757-4.857 0-2.682 2.135-4.862 4.757-4.862 2.624 0 4.758 2.18 4.758 4.862zm-36.866 12.218c10.51-3.628 16.902-10.149 20.094-20.486 2.855-9.243 2.705-20.28 2.443-30.21a71.653 71.653 0 01-6.348-1.408c-.454-.121-.903-.25-1.355-.378a1.673 1.673 0 01-.374.044c-.46 0-.902-.197-1.223-.53-4.816-1.522-9.33-3.502-13.237-5.82-6.565 3.896-14.622 6.714-22.534 8.093-.26 9.929-.415 20.966 2.441 30.21 3.194 10.336 9.586 16.857 20.093 20.485zm81.632-64.917H50.32l3.27 9.032a67.855 67.855 0 008.789 1.95 1.745 1.745 0 011.463 1.686c.183 6.788.38 14.155-.339 21.275l37.688.003c3.496 0 6.46-1.935 7.929-5.176l11.947-26.33a1.73 1.73 0 00-.712-2.233 1.642 1.642 0 00-.811-.207zM61.706 34.893c0-.192.158-.351.344-.351h29.422v12.431H61.706v-12.08zM95.25 20.508h14.195c.187 0 .344.16.344.352v26.113H94.906V20.86c0-.192.157-.352.344-.352zM33.558 37.613v3.013c0 .77-1.29 1.666-2.952 1.666H17.719c-1.661 0-2.95-.896-2.95-1.666v-1.779c0-.768 1.289-1.664 2.95-1.664h11.59c.145.027.242.112.613.11l2.983-.04c.36.096.59.263.653.36zm67.633 50.323c4.868 0 8.998-2.695 11.045-7.207l11.948-26.331c1.576-3.47-.9-7.425-4.64-7.425h-6.321V20.86c0-2.13-1.694-3.86-3.778-3.86H95.25c-2.084 0-3.778 1.73-3.778 3.86v10.174H62.05c-2.086 0-3.779 1.73-3.779 3.86v12.08h-9.22l-2.797-7.724c-1.229-3.396-4.296-5.576-7.833-5.576-.036 0-.075 0-.111.003l-5.1.065a5.784 5.784 0 00-.856-.068H17.719c-3.58 0-6.386 2.273-6.386 5.173v1.779c0 2.9 2.806 5.173 6.386 5.173h12.887c3.581 0 6.385-2.273 6.385-5.173l-.02-3.425 1.452-.018c2.114 0 3.876 1.254 4.611 3.283l6.403 17.691c-3.882-1.41-7.49-3.132-10.63-5.085a1.69 1.69 0 00-1.788 0c-6.751 4.195-15.297 7.128-23.572 8.392a1.708 1.708 0 00-1.03.572 1.77 1.77 0 00-.432 1.114c-.287 10.575-.61 22.56 2.56 32.819 3.559 11.524 11.031 19.03 22.839 22.946a1.7 1.7 0 001.06 0c11.006-3.652 18.242-10.423 22.058-20.658.755.1 2.059.062 2.855.062-3.858 5.517.008 13.227 6.663 13.227 6.672 0 10.514-7.735 6.662-13.227h16.944c-3.852 5.491-.01 13.227 6.662 13.227 6.657 0 10.521-7.711 6.663-13.227h6.555c.951 0 1.718-.785 1.718-1.753 0-.968-.767-1.755-1.718-1.755H61.622a56.504 56.504 0 001.447-6.876l38.122.001z" fill="#8B5CF6"/></svg>