<svg width="75" height="75" fill="none" xmlns="http://www.w3.org/2000/svg"><path d="M33.539 32.59c0 4.642-.705 8.63-2.113 11.964-1.408 3.452-3.228 6.25-5.458 8.392-2.23 2.262-4.753 3.87-7.57 4.822-2.934 1.071-5.81 1.607-8.627 1.607v-6.25c3.052 0 5.927-1.071 8.627-3.214 2.582-2.024 4.108-4.822 4.577-8.393a16.74 16.74 0 01-1.232.357c-.352.12-.763.238-1.232.357a9.754 9.754 0 01-1.937.179c-3.521 0-6.456-1.37-8.803-4.107-2.347-2.62-3.521-5.715-3.521-9.286 0-3.572 1.232-6.726 3.697-9.464 2.348-2.62 5.517-3.929 9.507-3.929 4.46 0 7.923 1.667 10.387 5 2.465 3.452 3.698 7.44 3.698 11.964zm35.211 0c0 4.642-.704 8.63-2.113 11.964-1.408 3.452-3.227 6.25-5.457 8.392-2.23 2.262-4.754 3.87-7.57 4.822-2.935 1.071-5.81 1.607-8.628 1.607v-6.25c3.052 0 5.928-1.071 8.627-3.214 2.582-2.024 4.108-4.822 4.578-8.393a16.67 16.67 0 01-1.233.357c-.352.119-.763.238-1.232.357a9.753 9.753 0 01-1.937.179c-3.52 0-6.455-1.37-8.803-4.107-2.347-2.62-3.52-5.715-3.52-9.286 0-3.572 1.232-6.726 3.696-9.464 2.348-2.62 5.517-3.929 9.508-3.929 4.46 0 7.922 1.667 10.387 5 2.465 3.452 3.697 7.44 3.697 11.964z" fill="#EDE9FE"/></svg>