<svg width="136" height="136" viewBox="0 0 136 136" fill="none" xmlns="http://www.w3.org/2000/svg">
<g clip-path="url(#clip0_27027_124)">
<path d="M134.59 74.2608L122.904 54.0471C122.616 53.5485 122.194 53.1337 121.682 52.8456C121.171 52.5575 120.589 52.4067 119.997 52.4089H101.922V35.7215C101.92 35.2654 101.732 34.8284 101.398 34.5058C101.063 34.1833 100.61 34.0015 100.137 34H27.9222C27.4494 34.0015 26.9964 34.1833 26.662 34.5058C26.3277 34.8284 26.1392 35.2654 26.1377 35.7215V90.1624C26.1377 90.8252 26.4106 91.4608 26.8964 91.9294C27.3822 92.3981 28.0411 92.6614 28.7281 92.6614H134.446C134.65 92.6621 134.853 92.6238 135.042 92.5487C135.231 92.4736 135.402 92.3632 135.547 92.2239C135.691 92.0845 135.806 91.9189 135.884 91.7366C135.961 91.5544 136.001 91.3591 136 91.162V79.5364C136.001 77.691 135.516 75.8757 134.59 74.2608Z" fill="#8B5CF6"/>
<path d="M136.001 79.5359V87.3104H113.447C112.054 87.3104 110.719 86.7768 109.735 85.8271C108.75 84.8773 108.197 83.5891 108.197 82.2459V52.4085H119.998C120.59 52.4063 121.172 52.5571 121.683 52.8452C122.194 53.1332 122.616 53.5481 122.905 54.0467L134.59 74.2604C135.516 75.8753 136.001 77.6906 136.001 79.5359Z" fill="#A78BFA"/>
<path d="M128.545 92.6696C128.555 94.5805 127.941 96.4458 126.79 98.0007C125.615 99.6309 123.932 100.856 121.985 101.499C120.037 102.141 117.928 102.167 115.965 101.571C114.002 100.976 112.287 99.7917 111.071 98.1904C109.855 96.5891 109.2 94.6548 109.204 92.6696C109.204 90.1953 110.223 87.8223 112.036 86.0727C113.85 84.3231 116.31 83.3402 118.875 83.3402C121.439 83.3402 123.899 84.3231 125.713 86.0727C127.527 87.8223 128.545 90.1953 128.545 92.6696Z" fill="#A5B4FC"/>
<path d="M101.922 35.7215V87.5885H43.0357C41.6444 87.5885 40.2667 87.3241 38.9813 86.8105C37.6959 86.2969 36.5279 85.544 35.5441 84.5949C34.5602 83.6459 33.7798 82.5191 33.2474 81.2791C32.715 80.0391 32.4409 78.71 32.4409 77.3678V34H100.137C100.61 34.0015 101.063 34.1833 101.397 34.5058C101.732 34.8284 101.92 35.2654 101.922 35.7215Z" fill="#A78BFA"/>
<path d="M128.545 92.6697C128.555 94.5805 127.941 96.4458 126.79 98.0008C125.941 98.2487 125.058 98.3704 124.171 98.3617C121.606 98.361 119.146 97.3778 117.333 95.6284C115.52 93.8789 114.5 91.5064 114.5 89.0323C114.491 87.1002 115.115 85.2148 116.284 83.6457C117.723 83.2649 119.234 83.2098 120.699 83.4846C122.164 83.7593 123.544 84.3566 124.73 85.2298C125.917 86.1031 126.878 87.2288 127.54 88.5192C128.202 89.8096 128.546 91.23 128.545 92.6697Z" fill="#C4B5FD"/>
<path d="M66.1741 92.6699C66.1726 94.4071 65.6683 96.1095 64.718 97.5852C63.7677 99.0608 62.4092 100.251 60.7954 101.022C59.1817 101.793 57.3768 102.114 55.5841 101.949C53.7914 101.784 52.0821 101.14 50.6487 100.088C49.2153 99.0362 48.1148 97.6193 47.4712 95.9968C46.8275 94.3743 46.6662 92.6107 47.0055 90.9045C47.3447 89.1984 48.1711 87.6175 49.3915 86.34C50.6118 85.0624 52.1777 84.139 53.9128 83.6737C54.7519 83.4257 55.6256 83.304 56.5032 83.3127C57.7753 83.3138 59.0347 83.5568 60.2094 84.0277C61.3841 84.4987 62.451 85.1884 63.3492 86.0575C64.2474 86.9265 64.9592 87.9578 65.4439 89.0924C65.9286 90.227 66.1767 91.4427 66.1741 92.6699Z" fill="#A5B4FC"/>
<path d="M66.174 92.6699C66.1702 94.5787 65.5572 96.44 64.4183 98.0009C63.5693 98.2489 62.6861 98.3706 61.7991 98.3619C59.2345 98.3612 56.7751 97.378 54.9616 95.6286C53.1481 93.8791 52.129 91.5066 52.1282 89.0325C52.1237 87.1096 52.7482 85.2343 53.9127 83.6737C54.7518 83.4257 55.6256 83.304 56.5031 83.3127C57.7752 83.3138 59.0346 83.5568 60.2093 84.0277C61.384 84.4987 62.451 85.1884 63.3492 86.0575C64.2473 86.9265 64.9591 87.9578 65.4438 89.0924C65.9286 90.227 66.1767 91.4427 66.174 92.6699Z" fill="#C4B5FD"/>
<path d="M34.6771 78.7257H7.27621C6.70369 78.7257 6.15462 78.5063 5.74978 78.1158C5.34495 77.7252 5.11752 77.1956 5.11752 76.6433C5.11752 76.0909 5.34495 75.5613 5.74978 75.1707C6.15462 74.7802 6.70369 74.5608 7.27621 74.5608H34.6771C35.2496 74.5608 35.7987 74.7802 36.2035 75.1707C36.6084 75.5613 36.8358 76.0909 36.8358 76.6433C36.8358 77.1956 36.6084 77.7252 36.2035 78.1158C35.7987 78.5063 35.2496 78.7257 34.6771 78.7257ZM56.5086 69.2547H18.2769C17.7043 69.2547 17.1553 69.0353 16.7504 68.6448C16.3456 68.2542 16.1182 67.7245 16.1182 67.1722C16.1182 66.6199 16.3456 66.0903 16.7504 65.6997C17.1553 65.3092 17.7043 65.0898 18.2769 65.0898H56.5086C57.0811 65.0898 57.6302 65.3092 58.035 65.6997C58.4398 66.0903 58.6673 66.6199 58.6673 67.1722C58.6673 67.7245 58.4398 68.2542 58.035 68.6448C57.6302 69.0353 57.0811 69.2547 56.5086 69.2547ZM17.0881 58.2593H2.15868C1.58617 58.2593 1.0371 58.0399 0.632264 57.6494C0.227432 57.2589 0 56.7292 0 56.1769C0 55.6246 0.227432 55.0949 0.632264 54.7044C1.0371 54.3138 1.58617 54.0944 2.15868 54.0944H17.0881C17.6607 54.0944 18.2097 54.3138 18.6146 54.7044C19.0194 55.0949 19.2468 55.6246 19.2468 56.1769C19.2468 56.7292 19.0194 57.2589 18.6146 57.6494C18.2097 58.0399 17.6607 58.2593 17.0881 58.2593ZM41.0265 46.7558H14.6733C14.1008 46.7558 13.5517 46.5365 13.1469 46.1459C12.742 45.7554 12.5146 45.2257 12.5146 44.6734C12.5146 44.1211 12.742 43.5914 13.1469 43.2009C13.5517 42.8103 14.1008 42.5909 14.6733 42.5909H41.0265C41.599 42.5909 42.1481 42.8103 42.5529 43.2009C42.9578 43.5914 43.1852 44.1211 43.1852 44.6734C43.1852 45.2257 42.9578 45.7554 42.5529 46.1459C42.1481 46.5365 41.599 46.7558 41.0265 46.7558Z" fill="#A5B4FC"/>
</g>
<defs>
<clipPath id="clip0_27027_124">
<rect width="136" height="136" fill="white"/>
</clipPath>
</defs>
</svg>
