<svg width="136" height="136" viewBox="0 0 136 136" fill="none" xmlns="http://www.w3.org/2000/svg">
<path d="M67.7334 18.8011V19.1618H39.2177V18.8011L41.1142 11.3333H65.8369L67.7334 18.8011Z" fill="#EDE9FE"/>
<path d="M11.3333 18.8011H95.6203V124.667H11.3333V18.8011Z" fill="#4C1D95"/>
<path d="M18.9493 26.2007H87.9936V117.282H18.9493V26.2007Z" fill="#C4B5FD"/>
<path d="M87.9937 26.2007V111.7H39.7935C38.2315 111.7 36.6848 111.402 35.2417 110.823C33.7987 110.243 32.4877 109.394 31.3835 108.323C30.2794 107.253 29.4037 105.982 28.8066 104.583C28.2096 103.185 27.9028 101.686 27.9038 100.172V26.2007H87.9937Z" fill="#A78BFA"/>
<path d="M28.3666 35.1359C27.808 35.1359 27.2723 35.3507 26.8771 35.7332C26.4819 36.1157 26.2595 36.6346 26.2588 37.1759V47.622C26.2595 48.1633 26.4819 48.6822 26.8771 49.0647C27.2723 49.4472 27.808 49.662 28.3666 49.662H39.1471C39.7055 49.662 40.2409 49.4471 40.6358 49.0645C41.0306 48.682 41.2524 48.1631 41.2524 47.622V37.3562C41.2524 37.0644 41.193 36.7755 41.0777 36.506C40.9624 36.2364 40.7934 35.9915 40.5804 35.7853C40.3673 35.5791 40.1144 35.4156 39.8361 35.3042C39.5578 35.1927 39.2596 35.1355 38.9585 35.1359H28.3666ZM28.3666 64.1736C27.8076 64.1736 27.2715 64.3888 26.8762 64.7718C26.4809 65.1548 26.2588 65.6743 26.2588 66.216V76.6622C26.2595 77.2034 26.4819 77.7223 26.8771 78.1048C27.2723 78.4873 27.808 78.7022 28.3666 78.7022H39.1471C39.7055 78.7022 40.2409 78.4873 40.6358 78.1047C41.0306 77.7221 41.2524 77.2032 41.2524 76.6622V66.3964C41.2524 65.8068 41.0107 65.2415 40.5805 64.8246C40.1503 64.4078 39.5668 64.1736 38.9585 64.1736H28.3666ZM28.3666 92.7921C28.0899 92.7918 27.8159 92.8443 27.5602 92.9467C27.3045 93.049 27.0721 93.1992 26.8763 93.3887C26.6806 93.5782 26.5253 93.8032 26.4193 94.0508C26.3134 94.2985 26.2588 94.564 26.2588 94.8321V105.29C26.2595 105.832 26.4819 106.351 26.8771 106.733C27.2723 107.116 27.808 107.33 28.3666 107.33H39.1471C39.7055 107.33 40.2409 107.115 40.6358 106.733C41.0306 106.35 41.2524 105.831 41.2524 105.29V95.0124C41.2524 94.7206 41.193 94.4317 41.0777 94.1622C40.9624 93.8926 40.7934 93.6477 40.5804 93.4415C40.3673 93.2353 40.1144 93.0718 39.8361 92.9604C39.5578 92.8489 39.2596 92.7918 38.9585 92.7921H28.3666Z" fill="#6D28D9"/>
<path d="M79.1701 44.1608H64.2972C63.7969 44.1608 63.3171 43.9682 62.9633 43.6254C62.6095 43.2826 62.4108 42.8177 62.4108 42.3329C62.4108 41.8481 62.6095 41.3831 62.9633 41.0403C63.3171 40.6975 63.7969 40.5049 64.2972 40.5049H79.1701C79.6704 40.5049 80.1502 40.6975 80.504 41.0403C80.8578 41.3831 81.0565 41.8481 81.0565 42.3329C81.0565 42.8177 80.8578 43.2826 80.504 43.6254C80.1502 43.9682 79.6704 44.1608 79.1701 44.1608ZM56.681 44.1608H49.0345C48.5342 44.1608 48.0544 43.9682 47.7006 43.6254C47.3468 43.2826 47.1481 42.8177 47.1481 42.3329C47.1481 41.8481 47.3468 41.3831 47.7006 41.0403C48.0544 40.6975 48.5342 40.5049 49.0345 40.5049H56.681C57.1813 40.5049 57.6611 40.6975 58.0149 41.0403C58.3687 41.3831 58.5674 41.8481 58.5674 42.3329C58.5674 42.8177 58.3687 43.2826 58.0149 43.6254C57.6611 43.9682 57.1813 44.1608 56.681 44.1608ZM79.1701 72.4649H71.8003C71.3 72.4649 70.8201 72.2723 70.4664 71.9295C70.1126 71.5867 69.9138 71.1218 69.9138 70.6369C69.9138 70.1521 70.1126 69.6872 70.4664 69.3444C70.8201 69.0016 71.3 68.809 71.8003 68.809H79.1701C79.6704 68.809 80.1502 69.0016 80.504 69.3444C80.8578 69.6872 81.0565 70.1521 81.0565 70.6369C81.0565 71.1218 80.8578 71.5867 80.504 71.9295C80.1502 72.2723 79.6704 72.4649 79.1701 72.4649ZM64.1212 72.4649H49.0295C48.5292 72.4649 48.0494 72.2723 47.6956 71.9295C47.3418 71.5867 47.143 71.1218 47.143 70.6369C47.143 70.1521 47.3418 69.6872 47.6956 69.3444C48.0494 69.0016 48.5292 68.809 49.0295 68.809H64.1212C64.6215 68.809 65.1013 69.0016 65.4551 69.3444C65.8089 69.6872 66.0076 70.1521 66.0076 70.6369C66.0076 71.1218 65.8089 71.5867 65.4551 71.9295C65.1013 72.2723 64.6215 72.4649 64.1212 72.4649ZM35.0496 45.5988H34.9767C34.7269 45.589 34.4817 45.5314 34.2551 45.4293C34.0284 45.3273 33.8249 45.1828 33.6561 45.0041L31.3194 42.5181C31.1526 42.3409 31.0235 42.1337 30.9393 41.9081C30.8552 41.6826 30.8177 41.4432 30.829 41.2037C30.8404 40.9641 30.9003 40.7291 31.0053 40.5119C31.1104 40.2948 31.2586 40.0999 31.4414 39.9382C31.6243 39.7766 31.8381 39.6514 32.0709 39.5699C32.3036 39.4884 32.5507 39.4521 32.7979 39.463C33.0451 39.474 33.2877 39.5321 33.5118 39.6339C33.7359 39.7357 33.937 39.8793 34.1038 40.0564L35.1552 41.1703L45.0252 32.2035C45.3897 31.8723 45.8752 31.6949 46.3747 31.7104C46.8743 31.726 47.347 31.9331 47.6889 32.2864C48.0307 32.6397 48.2138 33.1101 48.1978 33.5941C48.1817 34.0782 47.9679 34.5362 47.6033 34.8675L36.3399 45.104C35.9907 45.4225 35.5291 45.5995 35.0496 45.5988ZM35.0496 74.6365H34.9767C34.7269 74.6267 34.4817 74.5691 34.2551 74.4671C34.0284 74.365 33.8249 74.2205 33.6561 74.0418L31.3194 71.5558C31.1526 71.3786 31.0235 71.1714 30.9393 70.9459C30.8552 70.7203 30.8177 70.4809 30.829 70.2414C30.8404 70.0018 30.9003 69.7668 31.0053 69.5496C31.1104 69.3325 31.2586 69.1376 31.4414 68.9759C31.6243 68.8143 31.8381 68.6892 32.0709 68.6076C32.3036 68.5261 32.5507 68.4898 32.7979 68.5007C33.0451 68.5117 33.2877 68.5698 33.5118 68.6716C33.7359 68.7734 33.937 68.917 34.1038 69.0941L35.1552 70.208L45.0252 61.2412C45.3897 60.91 45.8752 60.7326 46.3747 60.7481C46.8743 60.7637 47.347 60.9709 47.6889 61.3241C48.0307 61.6774 48.2138 62.1478 48.1978 62.6318C48.1817 63.1159 47.9679 63.5739 47.6033 63.9052L36.3399 74.1418C35.9909 74.4604 35.5291 74.6374 35.0496 74.6365ZM35.0496 103.253H34.9767C34.7269 103.243 34.4817 103.185 34.2551 103.083C34.0284 102.981 33.8249 102.837 33.6561 102.658L31.3119 100.172C31.1353 99.9964 30.9969 99.7883 30.9049 99.56C30.8129 99.3316 30.7693 99.0877 30.7766 98.8427C30.7839 98.5977 30.842 98.3566 30.9474 98.1338C31.0528 97.911 31.2034 97.711 31.3901 97.5457C31.5769 97.3804 31.7961 97.2532 32.0346 97.1717C32.2732 97.0901 32.5262 97.0559 32.7787 97.071C33.0311 97.0861 33.2779 97.1503 33.5042 97.2597C33.7306 97.3691 33.932 97.5215 34.0963 97.7078L35.1477 98.8216L45.0176 89.8524C45.3858 89.54 45.8648 89.3785 46.3535 89.4019C46.8423 89.4253 47.3025 89.6318 47.6371 89.9778C47.9717 90.3238 48.1544 90.7823 48.1467 91.2564C48.139 91.7305 47.9414 92.1832 47.5958 92.5188L36.3324 102.755C35.9856 103.073 35.5269 103.251 35.0496 103.253ZM79.6631 101.827H64.7927C64.2924 101.827 63.8126 101.634 63.4588 101.291C63.105 100.949 62.9063 100.484 62.9063 99.9988C62.9063 99.514 63.105 99.0491 63.4588 98.7063C63.8126 98.3634 64.2924 98.1709 64.7927 98.1709H79.6631C80.1634 98.1709 80.6432 98.3634 80.997 98.7063C81.3508 99.0491 81.5495 99.514 81.5495 99.9988C81.5495 100.484 81.3508 100.949 80.997 101.291C80.6432 101.634 80.1634 101.827 79.6631 101.827ZM57.1664 101.827H49.5275C49.0272 101.827 48.5474 101.634 48.1936 101.291C47.8398 100.949 47.6411 100.484 47.6411 99.9988C47.6411 99.514 47.8398 99.0491 48.1936 98.7063C48.5474 98.3634 49.0272 98.1709 49.5275 98.1709H57.1664C57.6667 98.1709 58.1466 98.3634 58.5003 98.7063C58.8541 99.0491 59.0529 99.514 59.0529 99.9988C59.0529 100.484 58.8541 100.949 58.5003 101.291C58.1466 101.634 57.6667 101.827 57.1664 101.827Z" fill="#EDE9FE"/>
<path d="M124.667 61.59C124.667 62.0748 124.468 62.5397 124.114 62.8826C123.761 63.2254 123.281 63.418 122.78 63.418C122.28 63.418 121.8 63.2254 121.446 62.8826C121.093 62.5397 120.894 62.0748 120.894 61.59V44.8703C120.768 44.4559 120.265 43.481 118.052 43.481H116.155V40.142C116.159 40.0358 116.151 39.9295 116.13 39.8251H118.054C119.556 39.6516 121.07 40.0351 122.293 40.8986C123.515 41.7621 124.355 43.0416 124.644 44.4803L124.667 61.59ZM116.291 105.9L110.581 124.667L104.846 105.9H116.291Z" fill="#6D28D9"/>
<path d="M104.846 61.59H116.291V105.9H104.846V61.59Z" fill="#C4B5FD"/>
<path d="M116.293 40.1418V61.5898H104.849V40.1418C104.849 38.6712 105.451 37.2609 106.525 36.221C107.598 35.1812 109.053 34.597 110.571 34.597C112.088 34.597 113.544 35.1812 114.617 36.221C115.69 37.2609 116.293 38.6712 116.293 40.1418Z" fill="#6D28D9"/>
<path d="M116.291 105.9L110.581 124.667V105.9H116.291Z" fill="#7C3AED"/>
<path d="M110.581 61.59H116.291V105.9H110.581V61.59Z" fill="#A78BFA"/>
<path d="M116.293 40.1421V61.5901H110.584V34.6095C112.04 34.6087 113.441 35.1491 114.499 36.1194C115.556 37.0897 116.19 38.4161 116.268 39.8253C116.289 39.9296 116.298 40.0359 116.293 40.1421Z" fill="#7C3AED"/>
</svg>
