<svg width="136" height="136" viewBox="0 0 136 136" fill="none" xmlns="http://www.w3.org/2000/svg">
<path d="M64.6489 11.3333L11.3333 38.2847V100.196L72.0654 124.667H72.0898V124.654L124.667 93.6962V31.7942L64.6489 11.3333Z" fill="#DDD6FE"/>
<path d="M124.667 31.7942L64.6489 11.3333L11.3333 38.2847V100.196L72.0654 124.667H72.0898V62.7355L72.0776 62.7306L124.667 31.7942Z" fill="#C4B5FD"/>
<path d="M72.0898 62.7353V124.666H72.0655L11.3333 100.196V38.2894L18.4768 41.1654L72.0898 62.7353Z" fill="#8B5CF6"/>
<path d="M72.0898 62.7354V116.161L32.1348 100.05C28.1016 98.4223 24.6469 95.6268 22.2142 92.0223C19.7815 88.4178 18.4817 84.1689 18.4817 79.8207V41.1655L72.0898 62.7354Z" fill="#A78BFA"/>
<path d="M99.1284 23.0809L98.0557 23.6659L46.1737 52.3038L46.0762 72.2164L37.8599 69.1454L32.4962 67.1225V46.82L86.5724 18.8157L99.1284 23.0809Z" fill="#5B21B6"/>
<path d="M98.1158 23.6659L46.2338 52.3039L46.1363 72.2165L37.92 69.1455V49.5985L92.0207 21.5942L98.1158 23.6659Z" fill="#6D28D9"/>
</svg>
