<svg width="136" height="136" viewBox="0 0 136 136" fill="none" xmlns="http://www.w3.org/2000/svg">
<g clip-path="url(#clip0_27027_253)">
<path d="M60.5993 86.1704C60.0448 85.5417 59.3268 85.0906 58.5307 84.8708C57.7346 84.6509 56.894 84.6715 56.109 84.9302L48.4218 87.4545C48.0013 87.5932 47.5573 87.6398 47.1183 87.5911C46.6793 87.5424 46.2551 87.3996 45.8728 87.1718C45.4905 86.944 45.1587 86.6363 44.8986 86.2684C44.6385 85.9005 44.456 85.4805 44.3626 85.0355L42.638 76.91C42.4606 76.08 42.0565 75.3197 41.4734 74.719C40.8903 74.1183 40.1526 73.7022 39.3475 73.52L38.9845 73.4381L11.3333 115.203L33.8559 113.653L40.1248 136L68.3744 93.3862C67.9333 93.389 67.4967 93.2952 67.0933 93.1112C66.6899 92.9272 66.329 92.6571 66.0342 92.3186L60.5993 86.1704Z" fill="#A78BFA"/>
<path d="M60.5993 86.1703C60.1962 85.7115 59.7046 85.3445 59.1561 85.0927C58.6076 84.8409 58.0142 84.7098 57.4138 84.7078C56.9709 84.7076 56.5306 84.7786 56.109 84.9184L48.4218 87.4426C48.0011 87.5814 47.5569 87.628 47.1178 87.5794C46.6786 87.5307 46.2541 87.3879 45.8717 87.1601C45.4892 86.9324 45.1571 86.6246 44.8967 86.2567C44.6364 85.8888 44.4535 85.4688 44.3598 85.0237L43.5088 80.9931L20.7225 114.557L33.8531 113.653L37.5094 126.681L63.0984 88.9987L60.5993 86.1703ZM75.395 86.1703C75.9495 85.5416 76.6676 85.0905 77.4636 84.8706C78.2597 84.6508 79.1003 84.6714 79.8853 84.9301L87.5725 87.4543C87.993 87.5931 88.437 87.6397 88.876 87.591C89.315 87.5423 89.7393 87.3995 90.1215 87.1717C90.5038 86.9439 90.8356 86.6362 91.0957 86.2682C91.3558 85.9003 91.5383 85.4804 91.6317 85.0354L93.3563 76.9099C93.5339 76.0803 93.9381 75.3205 94.5212 74.7202C95.1043 74.12 95.8419 73.7045 96.6468 73.5228L97.0099 73.4409L124.667 115.203L102.144 113.653L95.8752 136L67.6199 93.3861C68.061 93.3889 68.4976 93.2951 68.901 93.1111C69.3044 92.9271 69.6654 92.6569 69.9601 92.3185L75.395 86.1703Z" fill="#A78BFA"/>
<path d="M75.3951 86.1703C75.9496 85.5417 76.6677 85.0906 77.4638 84.8707C78.2598 84.6508 79.1004 84.6715 79.8854 84.9302L87.5726 87.4544C87.9931 87.5932 88.4371 87.6397 88.8761 87.5911C89.3151 87.5424 89.7394 87.3996 90.1216 87.1717C90.5039 86.9439 90.8358 86.6362 91.0958 86.2683C91.3559 85.9004 91.5385 85.4804 91.6318 85.0355L92.4828 81.0049L115.266 114.557L102.133 113.653L98.4793 126.681L72.8961 88.9988L75.3951 86.1703Z" fill="#A78BFA"/>
<path d="M79.1674 89.7714L86.5426 92.1932C87.6026 92.5417 88.7215 92.6581 89.8277 92.5349C90.9339 92.4117 92.0029 92.0516 92.9663 91.4778C93.9297 90.904 94.7663 90.1291 95.4225 89.2026C96.0787 88.2761 96.5401 87.2186 96.777 86.0977L98.4279 78.3056L99.9937 77.9546L97.0068 73.4414L96.6437 73.5233C95.8399 73.706 95.1035 74.1219 94.5215 74.7221C93.9395 75.3222 93.5361 76.0815 93.3589 76.9104L91.6343 85.0359C91.541 85.4809 91.3584 85.9008 91.0983 86.2687C90.8382 86.6366 90.5064 86.9444 90.1241 87.1722C89.7419 87.4 89.3176 87.5428 88.8786 87.5915C88.4396 87.6402 87.9956 87.5936 87.5751 87.4548L79.8879 84.9306C79.1029 84.6719 78.2623 84.6513 77.4662 84.8711C76.6702 85.091 75.9521 85.5421 75.3976 86.1708L69.9627 92.3132C69.7298 92.6213 69.4318 92.8705 69.0914 93.042C68.751 93.2134 68.3772 93.3025 67.9983 93.3025C67.6195 93.3025 67.2457 93.2134 66.9053 93.042C66.5649 92.8705 66.2669 92.6213 66.034 92.3132L60.6019 86.1708C60.1988 85.712 59.7072 85.345 59.1587 85.0932C58.6102 84.8413 58.0168 84.7103 57.4164 84.7083C56.9735 84.708 56.5333 84.7791 56.1116 84.9189L48.4244 87.4431C48.0037 87.5819 47.5595 87.6285 47.1204 87.5798C46.6812 87.5312 46.2567 87.3884 45.8743 87.1606C45.4918 86.9328 45.1597 86.6251 44.8993 86.2572C44.639 85.8893 44.4561 85.4693 44.3624 85.0242L42.6406 76.8987C42.4606 76.071 42.0549 75.3136 41.4715 74.7156C40.8881 74.1176 40.1511 73.7039 39.3473 73.5233L38.9871 73.4414L36.0143 77.94L37.6709 78.3114L39.3218 86.1035C39.5593 87.2242 40.0212 88.2815 40.6779 89.2075C41.3346 90.1336 42.1715 90.908 43.1352 91.4813C44.0989 92.0545 45.1681 92.414 46.2743 92.5366C47.3804 92.6592 48.4992 92.5422 49.5591 92.1932L56.9143 89.7509L62.1422 95.6681C63.0405 96.666 64.1654 97.4178 65.4156 97.8559L67.9969 93.957L70.6009 97.8823C71.8834 97.4495 73.0382 96.6875 73.9566 95.6681L79.1674 89.7714Z" fill="#7C3AED"/>
<path d="M60.5998 86.1704C60.1966 85.7117 59.7051 85.3446 59.1566 85.0928C58.6081 84.841 58.0147 84.7099 57.4143 84.708C56.9713 84.7077 56.5311 84.7788 56.1094 84.9186L48.4223 87.4428C48.0016 87.5816 47.5574 87.6282 47.1182 87.5795C46.679 87.5309 46.2546 87.3881 45.8721 87.1603C45.4896 86.9325 45.1575 86.6248 44.8972 86.2569C44.6368 85.8889 44.4539 85.469 44.3603 85.0239L43.5093 80.9933L20.7229 114.557L33.8535 113.653L37.5099 126.681L63.0988 88.9989L60.5998 86.1704ZM92.4888 81.005L91.6378 85.0356C91.5445 85.4806 91.3619 85.9005 91.1018 86.2684C90.8418 86.6363 90.5099 86.944 90.1277 87.1718C89.7454 87.3997 89.3211 87.5425 88.8821 87.5912C88.4431 87.6398 87.9991 87.5933 87.5786 87.4545L79.8914 84.9303C79.1064 84.6716 78.2658 84.6509 77.4698 84.8708C76.6737 85.0907 75.9556 85.5418 75.4011 86.1704L72.9021 88.9989L98.491 126.681L102.145 113.653L115.278 114.557L92.4888 81.005Z" fill="#8B5CF6"/>
<path d="M63.0988 88.9989L60.5997 86.1704C60.1966 85.7117 59.705 85.3446 59.1565 85.0928C58.608 84.841 58.0146 84.7099 57.4142 84.708C56.9713 84.7077 56.531 84.7788 56.1094 84.9186L48.4222 87.4428C48.0015 87.5816 47.5573 87.6282 47.1182 87.5795C46.679 87.5309 46.2545 87.3881 45.872 87.1603C45.4896 86.9325 45.1575 86.6248 44.8971 86.2569C44.6368 85.8889 44.4539 85.469 44.3602 85.0239L43.5092 80.9933L39.538 86.8432C40.1808 88.9216 41.597 90.6522 43.4759 91.6552C45.3547 92.6581 47.5427 92.8515 49.5597 92.1929L56.915 89.7506L60.1232 93.3834L63.1016 88.9959L63.0988 88.9989ZM86.5404 92.1929C88.5384 92.8492 90.7066 92.6693 92.5772 91.692C94.4478 90.7147 95.8708 89.0184 96.5394 86.9689L92.4887 81.005L91.6377 85.0356C91.5444 85.4805 91.3619 85.9005 91.1018 86.2684C90.8417 86.6363 90.5099 86.944 90.1276 87.1718C89.7453 87.3997 89.3211 87.5425 88.8821 87.5912C88.4431 87.6398 87.9991 87.5933 87.5786 87.4545L79.8914 84.9303C79.1064 84.6716 78.2658 84.6509 77.4697 84.8708C76.6736 85.0907 75.9556 85.5418 75.4011 86.1704L72.902 88.9989L75.9173 93.4419L79.1681 89.7652L86.5404 92.1929Z" fill="#A78BFA"/>
<path d="M97.1942 19.8707L105.077 21.6462C105.585 21.7612 106.064 21.9843 106.484 22.3011C106.904 22.6179 107.255 23.0216 107.515 23.4862C107.775 23.9508 107.938 24.4662 107.994 24.9995C108.05 25.5328 107.998 26.0723 107.84 26.5835L105.392 34.5101C105.175 35.2127 105.158 35.9649 105.343 36.6772C105.528 37.3895 105.907 38.0322 106.436 38.5289L112.393 44.1302C112.777 44.4915 113.085 44.9317 113.295 45.4225C113.505 45.9133 113.614 46.444 113.614 46.9806C113.614 47.5172 113.505 48.0479 113.295 48.5387C113.085 49.0295 112.777 49.4697 112.393 49.8309L106.436 55.4351C105.907 55.9317 105.528 56.5744 105.342 57.2868C105.157 57.9992 105.175 58.7514 105.392 59.454L107.84 67.3806C107.998 67.8916 108.05 68.4309 107.994 68.964C107.938 69.4972 107.775 70.0124 107.515 70.4768C107.255 70.9411 106.904 71.3445 106.484 71.661C106.064 71.9775 105.585 72.2003 105.077 72.315L97.1942 74.0934C96.4954 74.251 95.8551 74.6119 95.3493 75.1335C94.8435 75.6551 94.4934 76.3153 94.3406 77.0359L92.616 85.1614C92.5054 85.6857 92.2899 86.1804 91.9832 86.6138C91.6764 87.0472 91.2853 87.4098 90.8348 87.6783C90.3843 87.9468 89.8843 88.1152 89.367 88.1729C88.8497 88.2306 88.3264 88.1762 87.8306 88.0132L80.1434 85.489C79.4621 85.2641 78.7324 85.246 78.0414 85.4369C77.3503 85.6277 76.7271 86.0194 76.246 86.5654L70.8111 92.7077C70.4609 93.1044 70.0343 93.4213 69.5586 93.6382C69.0828 93.855 68.5684 93.967 68.0482 93.967C67.528 93.967 67.0136 93.855 66.5378 93.6382C66.0621 93.4213 65.6355 93.1044 65.2854 92.7077L59.8504 86.5654C59.3693 86.0194 58.7461 85.6277 58.055 85.4369C57.364 85.246 56.6343 85.2641 55.953 85.489L48.2658 88.0132C47.77 88.1762 47.2467 88.2306 46.7294 88.1729C46.2121 88.1152 45.7121 87.9468 45.2616 87.6783C44.8111 87.4098 44.42 87.0472 44.1133 86.6138C43.8065 86.1804 43.591 85.6857 43.4805 85.1614L41.7558 77.0359C41.603 76.3153 41.2529 75.6551 40.7471 75.1335C40.2413 74.6119 39.601 74.251 38.9022 74.0934L31.0193 72.315C30.5113 72.2003 30.0321 71.9775 29.6123 71.661C29.1926 71.3445 28.8415 70.9411 28.5814 70.4768C28.3214 70.0124 28.1582 69.4972 28.1023 68.964C28.0463 68.4309 28.0988 67.8916 28.2564 67.3806L30.7044 59.454C30.9218 58.7514 30.939 57.9992 30.7539 57.2868C30.5689 56.5744 30.1894 55.9317 29.6606 55.4351L23.7037 49.8309C23.3189 49.4697 23.0116 49.0295 22.8012 48.5387C22.5909 48.0479 22.4823 47.5172 22.4823 46.9806C22.4823 46.444 22.5909 45.9133 22.8012 45.4225C23.0116 44.9317 23.3189 44.4915 23.7037 44.1302L29.6606 38.5289C30.1891 38.0322 30.5684 37.3895 30.7534 36.6772C30.9384 35.9649 30.9214 35.2127 30.7044 34.5101L28.2564 26.5835C28.0988 26.0723 28.0463 25.5328 28.1022 24.9995C28.1581 24.4662 28.3213 23.9508 28.5813 23.4862C28.8413 23.0216 29.1924 22.6179 29.6122 22.3011C30.032 21.9843 30.5112 21.7612 31.0193 21.6462L38.9022 19.8707C39.601 19.7131 40.2413 19.3521 40.7471 18.8306C41.2529 18.309 41.603 17.6488 41.7558 16.9282L43.4805 8.79979C43.5913 8.27575 43.8071 7.78136 44.114 7.34827C44.4208 6.91519 44.812 6.55296 45.2625 6.28477C45.713 6.01659 46.2128 5.84836 46.73 5.79087C47.2471 5.73337 47.7702 5.78788 48.2658 5.95089L55.953 8.47512C56.6344 8.69851 57.3637 8.71586 58.0545 8.52509C58.7452 8.33433 59.3685 7.94345 59.8504 7.39874L65.2854 1.25635C65.6359 0.86047 66.0627 0.54428 66.5384 0.327944C67.0141 0.111609 67.5283 -0.00012207 68.0482 -0.00012207C68.5681 -0.00012207 69.0823 0.111609 69.558 0.327944C70.0337 0.54428 70.4605 0.86047 70.8111 1.25635L76.246 7.39874C76.7279 7.94345 77.3512 8.33433 78.0419 8.52509C78.7327 8.71586 79.462 8.69851 80.1434 8.47512L87.8306 5.95089C88.3262 5.78788 88.8493 5.73337 89.3665 5.79087C89.8836 5.84836 90.3834 6.01659 90.8339 6.28477C91.2844 6.55296 91.6756 6.91519 91.9824 7.34827C92.2893 7.78136 92.5051 8.27575 92.616 8.79979L94.3406 16.9282C94.4934 17.6488 94.8435 18.309 95.3493 18.8306C95.8551 19.3521 96.4954 19.7131 97.1942 19.8707Z" fill="#6D28D9"/>
<path d="M97.5777 46.9938C97.5716 52.636 96.0452 58.1655 93.169 62.9653C90.2927 67.7651 86.1796 71.6464 81.2887 74.1762C76.3978 76.706 70.9213 77.7848 65.4705 77.2921C60.0196 76.7995 54.8087 74.7548 50.4191 71.3863C46.0295 68.0177 42.634 63.4578 40.6113 58.2152C38.5887 52.9727 38.0185 47.2537 38.9643 41.6964C39.9101 36.1392 42.3348 30.9622 45.9678 26.7431C49.6009 22.524 54.2993 19.4288 59.5389 17.8028C62.2982 16.942 65.166 16.5083 68.0487 16.5158C71.9288 16.5162 75.7708 17.305 79.3551 18.8372C82.9394 20.3693 86.1957 22.6148 88.9381 25.4453C91.6804 28.2757 93.8549 31.6356 95.3373 35.3331C96.8198 39.0305 97.581 42.9929 97.5777 46.9938Z" fill="#A78BFA"/>
<path d="M97.577 46.9938C97.5799 52.1513 96.3109 57.2249 93.8894 61.7377C91.468 66.2505 87.9735 70.0544 83.7345 72.7918C80.9752 73.6526 78.1074 74.0863 75.2247 74.0788C68.811 74.0826 62.5703 71.9337 57.4457 67.9567C52.3212 63.9798 48.5912 58.391 46.8195 52.0348C45.0478 45.6787 45.3306 38.9006 47.6252 32.7248C49.9198 26.5491 54.1014 21.3112 59.5383 17.8028C62.2975 16.942 65.1654 16.5083 68.0481 16.5158C71.9282 16.5162 75.7701 17.305 79.3544 18.8372C82.9387 20.3693 86.1951 22.6148 88.9374 25.4453C91.6797 28.2757 93.8542 31.6356 95.3367 35.333C96.8191 39.0305 97.5804 42.9929 97.577 46.9938Z" fill="#8B5CF6"/>
<path d="M70.1983 65.7807C69.634 65.7807 69.0929 65.5496 68.6939 65.1382C68.295 64.7268 68.0708 64.1688 68.0708 63.587V36.385L62.5848 40.2488C62.3543 40.4178 62.0934 40.5377 61.8174 40.6015C61.5413 40.6653 61.2557 40.6717 60.9773 40.6203C60.6989 40.5689 60.4332 40.4608 60.1957 40.3022C59.9583 40.1437 59.7539 39.9379 59.5945 39.6969C59.4352 39.456 59.324 39.1846 59.2675 38.8988C59.211 38.613 59.2104 38.3185 59.2657 38.0324C59.3209 37.7464 59.4309 37.4745 59.5893 37.2328C59.7477 36.9911 59.9512 36.7844 60.1879 36.6248L68.9984 30.4181C69.3182 30.1929 69.6915 30.0619 70.0781 30.0394C70.4648 30.0168 70.85 30.1035 71.1924 30.2901C71.5348 30.4767 71.8213 30.7562 72.021 31.0983C72.2207 31.4404 72.326 31.8322 72.3257 32.2316V63.587C72.3257 64.1688 72.1016 64.7268 71.7026 65.1382C71.3036 65.5496 70.7625 65.7807 70.1983 65.7807Z" fill="#F5F3FF"/>
</g>
<defs>
<clipPath id="clip0_27027_253">
<rect width="136" height="136" fill="white"/>
</clipPath>
</defs>
</svg>
