<svg width="136" height="136" viewBox="0 0 136 136" fill="none" xmlns="http://www.w3.org/2000/svg">
<path d="M87.7142 110.1V119H48.2808V110.1H57.6882L59.3455 95.0523L59.7355 91.4684V91.3972H76.2351L76.2595 91.4684L76.6494 95.0523L78.3067 110.1H87.7142Z" fill="#8B5CF6"/>
<path d="M76.6496 95.0523H59.3457L59.7357 91.4684V91.3972H76.2353L76.2597 91.4684L76.6496 95.0523Z" fill="#7C3AED"/>
<path d="M78.297 110.093H48.2759V118.99H87.7191V110.093H78.297Z" fill="#A78BFA"/>
<path d="M120.64 17H15.3546C14.2872 17.0025 13.2644 17.4172 12.5105 18.1531C11.7567 18.8891 11.3333 19.8861 11.3333 20.9256V87.538C11.3333 88.5775 11.7567 89.5745 12.5105 90.3105C13.2644 91.0464 14.2872 91.4611 15.3546 91.4636H120.397C120.958 91.4639 121.513 91.3566 122.031 91.1477C122.549 90.9389 123.02 90.6326 123.417 90.2464C123.813 89.8602 124.128 89.4017 124.342 88.897C124.557 88.3924 124.667 87.8515 124.667 87.3054V20.9256C124.667 19.8853 124.243 18.8875 123.488 18.1515C122.733 17.4154 121.709 17.0013 120.64 17Z" fill="#C4B5FD"/>
<path d="M18.8154 23.8025H117.18V77.9876H18.8154V23.8025Z" fill="#4C1D95"/>
<path d="M117.18 23.8025V73.0509H40.8961C37.0313 73.049 33.3254 71.5531 30.5926 68.8918C27.8598 66.2305 26.3237 62.6215 26.3218 58.8579V23.8025H117.18Z" fill="#6D28D9"/>
<path d="M102.313 61.9194C102.344 61.8434 102.385 61.7716 102.435 61.7058V61.682C103.121 60.5421 103.677 59.3324 104.092 58.0744C105.223 54.5517 105.201 50.7737 104.03 47.2636C102.858 43.7534 100.596 40.6845 97.5547 38.4817C94.5138 36.2789 90.8449 35.0511 87.0559 34.9682C83.2669 34.8853 79.5451 35.9515 76.4057 38.0191C74.2374 39.436 72.4153 41.2995 71.0683 43.4779C69.8209 45.474 68.9897 47.6899 68.622 49.999C68.2544 52.3081 68.3576 54.6651 68.9257 56.9354C69.4938 59.2056 70.5156 61.3446 71.9329 63.2301C73.3502 65.1156 75.1351 66.7106 77.1856 67.9241C80.1012 69.5843 83.4108 70.4759 86.788 70.5112C88.6978 70.5251 90.5952 70.2118 92.3935 69.5855C93.6727 69.1308 94.9117 68.5752 96.098 67.9241L96.1224 67.9479L101.362 73.0507H113.719C108.406 67.9004 102.313 61.9431 102.313 61.9194Z" fill="#4C1D95"/>
<path d="M122.542 84.6139C122.355 85.3545 121.958 86.029 121.396 86.5601C120.575 87.35 119.467 87.793 118.313 87.793C117.159 87.793 116.051 87.35 115.23 86.5601L106.432 77.9921H117.18V76.4493L121.396 80.5554C121.94 81.0716 122.333 81.7198 122.535 82.4332C122.736 83.1465 122.738 83.8993 122.542 84.6139Z" fill="#DDD6FE"/>
<path d="M117.18 76.4447V77.9874H106.432L101.363 73.0507H113.719C114.938 74.2374 116.132 75.4003 117.18 76.4447Z" fill="#5B21B6"/>
<path d="M123.382 78.7376L104.28 60.1348C106.585 56.4188 107.414 52.0095 106.61 47.7391C105.806 43.4687 103.424 39.6329 99.9142 36.9557C96.4044 34.2785 92.0097 32.9452 87.5596 33.2075C83.1096 33.4699 78.9121 35.3097 75.7596 38.3797C72.6072 41.4497 70.7179 45.5374 70.4485 49.871C70.1791 54.2047 71.5482 58.4845 74.2973 61.9024C77.0464 65.3203 80.9854 67.6398 85.3704 68.4231C89.7555 69.2063 94.2833 68.3991 98.099 66.1538L117.202 84.759C118.021 85.5567 119.133 86.0048 120.292 86.0048C121.451 86.0048 122.562 85.5567 123.382 84.759C124.202 83.9605 124.663 82.8775 124.663 81.7483C124.663 80.6191 124.202 79.5361 123.382 78.7376Z" fill="#A78BFA"/>
<path d="M88.6454 68.7098C98.7325 68.7098 106.91 60.7465 106.91 50.9234C106.91 41.1002 98.7325 33.137 88.6454 33.137C78.5584 33.137 70.3813 41.1002 70.3813 50.9234C70.3813 60.7465 78.5584 68.7098 88.6454 68.7098Z" fill="#8B5CF6"/>
<path d="M123.382 78.7373L104.265 60.1155C103.5 61.3401 102.589 62.4729 101.553 63.4905C101.051 63.9772 100.522 64.4352 99.9659 64.8623L118.203 82.6179C119.023 83.4154 120.134 83.8635 121.292 83.8635C122.451 83.8635 123.562 83.4154 124.382 82.6179L124.611 82.3805C124.713 81.722 124.656 81.0491 124.443 80.4163C124.229 79.7834 123.866 79.2083 123.382 78.7373Z" fill="#C4B5FD"/>
<path d="M88.6452 33.137C84.293 33.1326 80.0835 34.6484 76.7811 37.4091C74.4693 41.0121 73.5582 45.3019 74.2126 49.5024C74.8671 53.7028 77.0438 57.5364 80.349 60.3094C83.6541 63.0824 87.8694 64.6117 92.232 64.6206C96.5947 64.6295 100.816 63.1173 104.133 60.3577C105.863 57.6652 106.821 54.5707 106.908 51.3957C106.995 48.2206 106.207 45.081 104.626 42.3028C103.045 39.5247 100.729 37.2094 97.9192 35.5975C95.1089 33.9857 91.9067 33.1361 88.6452 33.137Z" fill="#C4B5FD"/>
</svg>
