<svg width="136" height="136" viewBox="0 0 136 136" fill="none" xmlns="http://www.w3.org/2000/svg">
<path fill-rule="evenodd" clip-rule="evenodd" d="M37.7653 115.843C19.4059 109.501 15.3117 94.6765 14.8393 76.7834C14.7291 72.6152 14.8214 68.473 14.9305 64.3074C23.0351 62.8952 30.7961 60.2944 37.912 56.0699C42.2019 58.6146 46.5483 60.4875 51.2843 61.9835C51.6139 62.0877 51.6798 62.4933 52.3717 62.4933C52.7066 62.4933 52.6366 62.3998 52.8693 62.4661C55.6585 63.2611 58.0159 63.8053 60.8963 64.3074C61.1587 74.2556 61.3794 85.5455 58.4428 95.0542C55.1289 105.785 48.4479 112.255 38.0586 115.843H37.7653ZM52.7712 75.8161C52.5352 75.5753 52.2153 75.4401 51.8817 75.4401C51.5481 75.4402 51.2282 75.5755 50.9923 75.8164L34.8443 92.3095L27.2162 84.5185C27.0995 84.3991 26.9608 84.3043 26.8082 84.2396C26.6556 84.1749 26.492 84.1416 26.3268 84.1416C26.1615 84.1416 25.9979 84.1748 25.8453 84.2395C25.6926 84.3041 25.554 84.3988 25.4372 84.5183C25.3201 84.6377 25.2273 84.7796 25.1639 84.9358C25.1005 85.092 25.0679 85.2594 25.0679 85.4285C25.0679 85.5975 25.1005 85.765 25.1639 85.9211C25.2273 86.0773 25.3201 86.2192 25.4372 86.3387L33.9542 95.0393C34.0711 95.159 34.21 95.2539 34.3629 95.3187C34.5158 95.3834 34.6797 95.4168 34.8452 95.4168C35.0107 95.4168 35.1746 95.3834 35.3275 95.3187C35.4804 95.2539 35.6193 95.159 35.7362 95.0393L52.7715 77.6352C52.8886 77.5159 52.9815 77.3741 53.0448 77.218C53.1082 77.0619 53.1408 76.8946 53.1408 76.7256C53.1407 76.5566 53.1081 76.3893 53.0447 76.2333C52.9813 76.0772 52.8883 75.9354 52.7712 75.8161ZM61.2481 47.4408V34.8934C61.2491 34.6763 61.334 34.4685 61.4842 34.315C61.6344 34.1615 61.8379 34.0749 62.0504 34.0738H91.9298V47.4408H61.2481ZM94.4479 20.8596C94.4489 20.6425 94.5338 20.4347 94.684 20.2812C94.8342 20.1277 95.0377 20.0411 95.2501 20.04H109.445C109.658 20.0411 109.861 20.1277 110.011 20.2812C110.162 20.4347 110.246 20.6425 110.247 20.8596V47.4408H94.4479V20.8596ZM34.0158 40.6256C34.0158 41.2967 33.4639 41.8328 32.9384 42.1501C32.248 42.5672 31.4034 42.7593 30.606 42.7593H17.7191C16.9223 42.7593 16.0779 42.5669 15.3881 42.1499C14.8628 41.8325 14.3109 41.2967 14.3109 40.6256V38.8475C14.3109 38.177 14.863 37.6414 15.3881 37.3243C16.0781 36.9075 16.9223 36.7151 17.7191 36.7151L29.3881 36.7224C29.6071 36.7621 29.6645 36.8279 29.9157 36.8247L33.0214 36.7999C33.3645 36.8918 33.9312 37.1865 34.0158 37.4715V40.6256Z" fill="#C4B5FD"/>
<path fill-rule="evenodd" clip-rule="evenodd" d="M53.0951 75.4857C53.2548 75.6485 53.3814 75.8418 53.4678 76.0546C53.5542 76.2675 53.5987 76.4956 53.5987 76.726C53.5987 76.9564 53.5542 77.1845 53.4678 77.3973C53.3814 77.6102 53.2548 77.8035 53.0951 77.9662L36.0599 95.3703C35.9004 95.5333 35.711 95.6626 35.5026 95.7508C35.2941 95.839 35.0708 95.8844 34.8452 95.8844C34.6195 95.8844 34.3962 95.839 34.1877 95.7508C33.9793 95.6626 33.7899 95.5333 33.6304 95.3703L25.1134 86.6697C24.9538 86.5068 24.8272 86.3134 24.7408 86.1005C24.6543 85.8875 24.6099 85.6593 24.6099 85.4288C24.6099 85.1983 24.6543 84.9701 24.7408 84.7571C24.8272 84.5442 24.9538 84.3508 25.1134 84.1879C25.7818 83.502 26.8699 83.502 27.5401 84.1879L34.8445 91.6482L50.6687 75.4857C51.3384 74.8014 52.4265 74.8014 53.0951 75.4857ZM97.4248 74.4718V60.438C97.4248 59.4684 98.1946 58.6833 99.1425 58.6833C100.09 58.6833 100.859 59.4681 100.859 60.438V74.4718C100.859 75.4401 100.09 76.2249 99.1425 76.2249C98.1946 76.2249 97.4248 75.4398 97.4248 74.4718ZM83.6871 74.4718V60.438C83.6871 59.9728 83.868 59.5267 84.19 59.1978C84.512 58.8688 84.9487 58.6841 85.404 58.6841C85.8594 58.6841 86.2961 58.8688 86.6181 59.1978C86.94 59.5267 87.1209 59.9728 87.1209 60.438V74.4718C87.1209 74.9367 86.9401 75.3826 86.6183 75.7114C86.2965 76.0402 85.8599 76.2249 85.4048 76.2249C85.1793 76.225 84.9561 76.1797 84.7477 76.0917C84.5394 76.0036 84.3501 75.8745 84.1906 75.7117C84.0311 75.5489 83.9045 75.3556 83.8181 75.1429C83.7318 74.9301 83.6872 74.7021 83.6871 74.4718ZM69.9495 74.4718V60.438C69.9494 60.2076 69.9936 59.9795 70.0798 59.7667C70.166 59.5538 70.2924 59.3604 70.4517 59.1975C70.6111 59.0345 70.8003 58.9052 71.0086 58.817C71.2169 58.7288 71.4401 58.6833 71.6656 58.6833C72.1211 58.6833 72.558 58.8682 72.8801 59.1973C73.2022 59.5263 73.3832 59.9726 73.3833 60.438V74.4718C73.3829 74.9369 73.2018 75.3828 72.8797 75.7116C72.5576 76.0403 72.1209 76.2249 71.6656 76.2249C71.2105 76.2248 70.774 76.0401 70.4522 75.7113C70.1304 75.3826 69.9496 74.9367 69.9495 74.4718ZM105.048 103.181C105.048 105.858 102.913 108.038 100.288 108.038C97.665 108.038 95.5306 105.858 95.5306 103.181C95.5306 100.499 97.665 98.319 100.288 98.319C102.913 98.319 105.048 100.499 105.048 103.181ZM74.7782 103.181C74.7782 105.858 72.6439 108.038 70.0205 108.038C67.3987 108.038 65.2628 105.858 65.2628 103.181C65.2628 100.499 67.3984 98.319 70.0205 98.319C72.6439 98.319 74.7782 100.499 74.7782 103.181ZM37.9119 115.399C48.4215 111.771 54.8141 105.25 58.0061 94.9133C60.861 85.6701 60.7105 74.6325 60.4486 64.7037C58.3132 64.3306 56.1952 63.8607 54.1007 63.2951C53.6465 63.1737 53.1978 63.0453 52.7464 62.9166C52.6234 62.9455 52.4977 62.9604 52.3716 62.961C51.9114 62.961 51.47 62.7645 51.1488 62.4304C46.3333 60.9093 41.8186 58.9286 37.9119 56.611C31.3474 60.5069 23.2898 63.3246 15.378 64.704C15.1177 74.6328 14.9626 85.6704 17.819 94.9136C21.0126 105.25 27.4052 111.771 37.9119 115.399ZM119.544 50.4822H50.3197L53.59 59.5138C56.5657 60.3743 59.3569 61.0009 62.3788 61.4634C63.2007 61.5905 63.8201 62.3015 63.8418 63.15C64.0255 69.9377 64.2224 77.3049 63.5032 84.4254L101.191 84.4283C104.687 84.4283 107.651 82.4932 109.12 79.2517L121.067 52.9223C121.189 52.661 121.244 52.3723 121.226 52.0835C121.209 51.7946 121.119 51.5151 120.967 51.2711C120.815 51.0271 120.604 50.8267 120.355 50.6887C120.106 50.5507 119.827 50.4797 119.544 50.4822ZM61.7061 34.8934C61.7061 34.7013 61.864 34.5416 62.0505 34.5416H91.4719V46.9731H61.7061V34.8934ZM95.2501 20.5078H109.445C109.632 20.5078 109.789 20.6675 109.789 20.8596V46.9731H94.9057V20.8596C94.9057 20.6675 95.0633 20.5078 95.2501 20.5078ZM33.5579 37.6133V40.6257C33.5579 41.3959 32.2687 42.2916 30.6059 42.2916H17.7191C16.0579 42.2916 14.7687 41.3959 14.7687 40.6257V38.8475C14.7687 38.0789 16.0579 37.1831 17.7191 37.1831H29.3081C29.4542 37.2098 29.5515 37.2951 29.9215 37.2925L32.9051 37.2526C33.2641 37.3486 33.4943 37.5157 33.5579 37.6133ZM101.191 87.9363C106.059 87.9363 110.189 85.2415 112.236 80.7286L124.184 54.398C125.76 50.9283 123.284 46.9731 119.544 46.9731H113.223V20.8596C113.223 18.7309 111.529 17 109.445 17H95.2501C93.1663 17 91.4719 18.7309 91.4719 20.8596V31.0338H62.0505C59.9655 31.0338 58.2724 32.7647 58.2724 34.8934V46.9731H49.052L46.2549 39.2497C45.0265 35.8544 41.9589 33.674 38.4224 33.674C38.3861 33.674 38.347 33.674 38.311 33.6769L33.2117 33.7419C32.9281 33.698 32.6418 33.6752 32.355 33.6738H17.7191C14.1392 33.6738 11.3334 35.9473 11.3334 38.8475V40.6257C11.3334 43.5259 14.1392 45.7994 17.7191 45.7994H30.6059C34.1871 45.7994 36.9914 43.5259 36.9914 40.6257L36.9712 37.2009L38.4226 37.1831C40.5366 37.1831 42.2992 38.4367 43.0342 40.4662L49.437 58.1571C45.5549 56.7469 41.9461 55.0249 38.8061 53.0721C38.5369 52.9046 38.2278 52.8161 37.9126 52.8161C37.5973 52.8161 37.2882 52.9046 37.019 53.0721C30.2677 57.2674 21.7216 60.1997 13.4475 61.4637C13.0488 61.5248 12.6837 61.7272 12.4163 62.0356C12.1488 62.3439 11.996 62.7385 11.9846 63.1502C11.6982 73.725 11.3755 85.7103 14.5444 95.9688C18.1038 107.493 25.5761 114.999 37.3836 118.915C37.7283 119.028 38.0994 119.028 38.4441 118.915C49.4498 115.263 56.6863 108.492 60.502 98.2569C61.2575 98.3577 62.561 98.319 63.3569 98.319C59.4985 103.836 63.3653 111.546 70.0203 111.546C76.6919 111.546 80.5342 103.811 76.6821 98.319H93.6262C89.7744 103.81 93.6162 111.546 100.288 111.546C106.945 111.546 110.809 103.835 106.951 98.319H113.506C114.457 98.319 115.224 97.5342 115.224 96.5659C115.224 95.5976 114.457 94.8112 113.506 94.8112H61.6221C62.2473 92.5821 62.7174 90.2806 63.0692 87.9348L101.191 87.9363Z" fill="#8B5CF6"/>
</svg>
