<svg width="75" height="75" viewBox="0 0 75 75" fill="none" xmlns="http://www.w3.org/2000/svg">
<path d="M33.5387 32.5893C33.5387 37.2321 32.8345 41.2202 31.426 44.5536C30.0176 48.006 28.1984 50.8036 25.9683 52.9464C23.7383 55.2083 21.2148 56.8155 18.3979 57.7679C15.4636 58.8393 12.588 59.375 9.77112 59.375L9.77112 53.125C12.8228 53.125 15.6983 52.0536 18.3979 49.9107C20.98 47.8869 22.5059 45.0893 22.9753 41.5179C22.6232 41.6369 22.2124 41.756 21.743 41.875C21.3908 41.9941 20.98 42.1131 20.5106 42.2321C19.9237 42.3512 19.2782 42.4107 18.5739 42.4107C15.0528 42.4107 12.1185 41.0417 9.77112 38.3036C7.4237 35.6845 6.24999 32.5893 6.24999 29.0179C6.24999 25.4464 7.48239 22.2917 9.94718 19.5536C12.2946 16.9345 15.4636 15.625 19.4542 15.625C23.9143 15.625 27.3767 17.2917 29.8415 20.625C32.3063 24.0774 33.5387 28.0655 33.5387 32.5893ZM68.75 32.5893C68.75 37.2321 68.0458 41.2202 66.6373 44.5536C65.2289 48.0059 63.4096 50.8036 61.1796 52.9464C58.9495 55.2083 56.4261 56.8155 53.6092 57.7679C50.6749 58.8393 47.7993 59.375 44.9824 59.375L44.9824 53.125C48.034 53.125 50.9096 52.0536 53.6092 49.9107C56.1913 47.8869 57.7171 45.0893 58.1866 41.5179C57.8345 41.6369 57.4237 41.7559 56.9542 41.875C56.6021 41.994 56.1913 42.1131 55.7218 42.2321C55.135 42.3512 54.4894 42.4107 53.7852 42.4107C50.2641 42.4107 47.3298 41.0417 44.9824 38.3036C42.635 35.6845 41.4613 32.5893 41.4613 29.0179C41.4613 25.4464 42.6937 22.2917 45.1584 19.5536C47.5059 16.9345 50.6749 15.625 54.6655 15.625C59.1256 15.625 62.588 17.2917 65.0528 20.625C67.5176 24.0774 68.75 28.0655 68.75 32.5893Z" fill="#EDE9FE"/>
</svg>
