<svg width="136" height="136" fill="none" xmlns="http://www.w3.org/2000/svg"><g clip-path="url(#clip0_27027_124)"><path d="M134.59 74.26l-11.686-20.213a3.245 3.245 0 00-1.222-1.201 3.408 3.408 0 00-1.685-.437h-18.075V35.72a1.7 1.7 0 00-.524-1.215 1.827 1.827 0 00-1.261-.506H27.922a1.824 1.824 0 00-1.26.506c-.334.322-.523.76-.524 1.215v54.441c0 .663.273 1.299.758 1.767a2.64 2.64 0 001.832.732h105.718a1.56 1.56 0 001.101-.438A1.457 1.457 0 00136 91.16V79.537a10.587 10.587 0 00-1.41-5.275z" fill="#8B5CF6"/><path d="M136.001 79.536v7.774h-22.554a5.347 5.347 0 01-3.712-1.483 4.974 4.974 0 01-1.538-3.581V52.409h11.801a3.408 3.408 0 011.685.436c.511.288.933.703 1.222 1.202L134.59 74.26a10.598 10.598 0 011.411 5.276z" fill="#A78BFA"/><path d="M128.545 92.67A8.876 8.876 0 01126.79 98a9.636 9.636 0 01-4.805 3.499 9.99 9.99 0 01-6.02.072 9.65 9.65 0 01-4.894-3.38 9.094 9.094 0 01-1.867-5.521c0-2.475 1.019-4.848 2.832-6.597 1.814-1.75 4.274-2.733 6.839-2.733 2.564 0 5.024.983 6.838 2.733s2.832 4.122 2.832 6.597z" fill="#A5B4FC"/><path d="M101.922 35.721v51.867H43.036c-1.392 0-2.77-.264-4.055-.777a10.628 10.628 0 01-3.437-2.216 10.202 10.202 0 01-2.297-3.316 9.909 9.909 0 01-.806-3.911V34h67.696c.473.002.926.183 1.26.506.335.322.523.76.525 1.215z" fill="#A78BFA"/><path d="M128.545 92.67A8.877 8.877 0 01126.79 98a9.03 9.03 0 01-2.619.362c-2.565-.001-5.025-.984-6.838-2.734-1.813-1.75-2.833-4.122-2.833-6.596a8.94 8.94 0 011.784-5.386 10.04 10.04 0 014.415-.161 9.867 9.867 0 014.031 1.745 9.436 9.436 0 012.81 3.29 9.073 9.073 0 011.005 4.15z" fill="#C4B5FD"/><path d="M66.174 92.67a9.087 9.087 0 01-1.456 4.915 9.555 9.555 0 01-3.923 3.437 9.98 9.98 0 01-5.21.927 9.873 9.873 0 01-4.936-1.861 9.368 9.368 0 01-3.178-4.091 9.02 9.02 0 01-.465-5.093 9.211 9.211 0 012.386-4.564 9.735 9.735 0 014.52-2.666 8.833 8.833 0 012.591-.361 9.99 9.99 0 013.706.715 9.71 9.71 0 013.14 2.03 9.32 9.32 0 012.095 3.034 9.053 9.053 0 01.73 3.578z" fill="#A5B4FC"/><path d="M66.174 92.67A9.07 9.07 0 0164.418 98a9.029 9.029 0 01-2.619.362c-2.565 0-5.024-.984-6.837-2.733-1.814-1.75-2.833-4.122-2.834-6.597a8.92 8.92 0 011.785-5.358 8.834 8.834 0 012.59-.361 9.99 9.99 0 013.706.715 9.71 9.71 0 013.14 2.03c.898.868 1.61 1.9 2.095 3.034a9.05 9.05 0 01.73 3.578z" fill="#C4B5FD"/><path d="M34.677 78.726h-27.4a2.2 2.2 0 01-1.527-.61 2.046 2.046 0 01-.632-1.473c0-.552.227-1.082.632-1.472a2.2 2.2 0 011.526-.61h27.401a2.2 2.2 0 011.526.61c.405.39.633.92.633 1.472 0 .553-.228 1.082-.633 1.473a2.2 2.2 0 01-1.526.61zm21.832-9.471H18.277a2.2 2.2 0 01-1.527-.61 2.046 2.046 0 01-.632-1.473c0-.552.228-1.082.632-1.472a2.2 2.2 0 011.527-.61h38.232a2.2 2.2 0 011.526.61c.405.39.632.92.632 1.472 0 .553-.227 1.082-.632 1.473a2.2 2.2 0 01-1.526.61zm-39.42-10.996H2.158a2.2 2.2 0 01-1.527-.61A2.046 2.046 0 010 56.177c0-.552.227-1.082.632-1.473a2.2 2.2 0 011.527-.61h14.93a2.2 2.2 0 011.526.61c.404.39.632.92.632 1.473 0 .552-.228 1.082-.632 1.472a2.2 2.2 0 01-1.527.61zm23.938-11.503H14.672c-.572 0-1.121-.22-1.526-.61a2.046 2.046 0 01-.632-1.473c0-.552.227-1.082.632-1.472a2.2 2.2 0 011.526-.61h26.354a2.2 2.2 0 011.526.61c.405.39.632.92.632 1.472 0 .553-.227 1.082-.632 1.473-.405.39-.954.61-1.526.61z" fill="#A5B4FC"/></g><defs><clipPath id="clip0_27027_124"><path fill="#fff" d="M0 0h136v136H0z"/></clipPath></defs></svg>