<svg width="136" height="136" fill="none" xmlns="http://www.w3.org/2000/svg"><path d="M87.714 110.1v8.9H48.281v-8.9h9.407l1.657-15.048.39-3.584v-.07h16.5l.025.07.39 3.584 1.657 15.048h9.407z" fill="#8B5CF6"/><path d="M76.65 95.052H59.346l.39-3.584v-.07h16.5l.024.07.39 3.584z" fill="#7C3AED"/><path d="M78.297 110.093H48.276v8.897h39.443v-8.897h-9.422z" fill="#A78BFA"/><path d="M120.64 17H15.355a4.086 4.086 0 00-2.845 1.153 3.875 3.875 0 00-1.177 2.773v66.612c0 1.04.424 2.037 1.178 2.773a4.086 4.086 0 002.844 1.153h105.042c.561 0 1.116-.107 1.634-.316a4.284 4.284 0 001.386-.902 4.15 4.15 0 00.925-1.349 4.058 4.058 0 00.325-1.592v-66.38c0-1.04-.424-2.038-1.179-2.774A4.087 4.087 0 00120.64 17z" fill="#C4B5FD"/><path d="M18.815 23.802h98.365v54.186H18.815V23.802z" fill="#4C1D95"/><path d="M117.18 23.802v49.249H40.896c-3.865-.002-7.57-1.498-10.303-4.16-2.733-2.66-4.27-6.27-4.271-10.033V23.802h90.858z" fill="#6D28D9"/><path d="M102.313 61.92a.94.94 0 01.122-.214v-.024a17.83 17.83 0 001.657-3.608 17.355 17.355 0 00-.062-10.81 17.83 17.83 0 00-6.475-8.782 18.598 18.598 0 00-10.5-3.514 18.634 18.634 0 00-10.65 3.051 17.563 17.563 0 00-5.337 5.459 17.495 17.495 0 00-2.446 6.521 17.334 17.334 0 00.304 6.936 17.58 17.58 0 003.007 6.295 18.094 18.094 0 005.253 4.694 19.835 19.835 0 009.602 2.587c1.91.014 3.807-.3 5.606-.925a25.336 25.336 0 003.704-1.662l.024.024 5.24 5.103h12.357c-5.313-5.15-11.406-11.108-11.406-11.132z" fill="#4C1D95"/><path d="M122.542 84.614a4.04 4.04 0 01-1.146 1.946 4.448 4.448 0 01-3.083 1.233 4.448 4.448 0 01-3.083-1.233l-8.798-8.568h10.748V76.45l4.216 4.106a4.148 4.148 0 011.139 1.878c.201.713.203 1.466.007 2.18z" fill="#DDD6FE"/><path d="M117.18 76.445v1.542h-10.748l-5.069-4.936h12.356a431.57 431.57 0 013.461 3.394z" fill="#5B21B6"/><path d="M123.382 78.738L104.28 60.135a17.384 17.384 0 002.33-12.396c-.804-4.27-3.186-8.106-6.696-10.783-3.51-2.678-7.904-4.01-12.354-3.748-4.45.262-8.648 2.102-11.8 5.172-3.153 3.07-5.042 7.157-5.312 11.491-.269 4.334 1.1 8.613 3.85 12.031 2.748 3.418 6.687 5.738 11.072 6.521a18.661 18.661 0 0012.729-2.27l19.103 18.606a4.43 4.43 0 003.09 1.246 4.43 4.43 0 003.09-1.246 4.202 4.202 0 001.281-3.01 4.2 4.2 0 00-1.281-3.011z" fill="#A78BFA"/><path d="M88.645 68.71c10.088 0 18.265-7.963 18.265-17.787 0-9.823-8.177-17.786-18.265-17.786-10.087 0-18.264 7.963-18.264 17.786S78.558 68.71 88.645 68.71z" fill="#8B5CF6"/><path d="M123.382 78.737l-19.117-18.621a18.393 18.393 0 01-2.712 3.374c-.502.487-1.031.945-1.587 1.372l18.237 17.756a4.432 4.432 0 003.089 1.246c1.159 0 2.27-.449 3.09-1.246l.229-.237a4.158 4.158 0 00-.168-1.965 4.237 4.237 0 00-1.061-1.679z" fill="#C4B5FD"/><path d="M88.645 33.137c-4.352-.004-8.561 1.511-11.864 4.272a17.406 17.406 0 00-2.568 12.093c.654 4.2 2.83 8.034 6.136 10.807 3.305 2.773 7.52 4.303 11.883 4.312 4.363.008 8.584-1.504 11.901-4.263a17.456 17.456 0 002.775-8.962 17.41 17.41 0 00-2.282-9.093 18.02 18.02 0 00-6.707-6.706 18.64 18.64 0 00-9.274-2.46z" fill="#C4B5FD"/></svg>